<mxfile host="app.diagrams.net" modified="2021-04-17T22:03:26.396Z" agent="5.0 (Macintosh; Intel Mac OS X 10_11_6) AppleWebKit/537.36 (KHTML, like Gecko) Chrome/89.0.4389.128 Safari/537.36" etag="BjtjB4J4-t_q-ABiLZ6y" version="14.6.1" type="github">
  <diagram id="C5RBs43oDa-KdzZeNtuy" name="Page-1">
    <mxGraphModel dx="2880" dy="1894" grid="1" gridSize="10" guides="1" tooltips="1" connect="1" arrows="1" fold="1" page="1" pageScale="1" pageWidth="3300" pageHeight="4681" math="0" shadow="0">
      <root>
        <mxCell id="WIyWlLk6GJQsqaUBKTNV-0" />
        <mxCell id="WIyWlLk6GJQsqaUBKTNV-1" parent="WIyWlLk6GJQsqaUBKTNV-0" />
        <mxCell id="JeZtBRn4ZJVJt3xqNd3d-0" value="GameObject (Abstract ősosztály)" style="swimlane;fontStyle=1;align=center;verticalAlign=top;childLayout=stackLayout;horizontal=1;startSize=26;horizontalStack=0;resizeParent=1;resizeParentMax=0;resizeLast=0;collapsible=1;marginBottom=0;" parent="WIyWlLk6GJQsqaUBKTNV-1" vertex="1">
          <mxGeometry x="832.5" y="506" width="220" height="456" as="geometry">
            <mxRectangle x="430" y="140" width="220" height="26" as="alternateBounds" />
          </mxGeometry>
        </mxCell>
        <mxCell id="JeZtBRn4ZJVJt3xqNd3d-1" value="+ objectName: String" style="text;strokeColor=none;fillColor=none;align=left;verticalAlign=top;spacingLeft=4;spacingRight=4;overflow=hidden;rotatable=0;points=[[0,0.5],[1,0.5]];portConstraint=eastwest;" parent="JeZtBRn4ZJVJt3xqNd3d-0" vertex="1">
          <mxGeometry y="26" width="220" height="26" as="geometry" />
        </mxCell>
        <mxCell id="JeZtBRn4ZJVJt3xqNd3d-256" value="+ objectAppearance: enum" style="text;strokeColor=none;fillColor=none;align=left;verticalAlign=top;spacingLeft=4;spacingRight=4;overflow=hidden;rotatable=0;points=[[0,0.5],[1,0.5]];portConstraint=eastwest;" parent="JeZtBRn4ZJVJt3xqNd3d-0" vertex="1">
          <mxGeometry y="52" width="220" height="26" as="geometry" />
        </mxCell>
        <mxCell id="JeZtBRn4ZJVJt3xqNd3d-316" value="+ objectWidth: int" style="text;strokeColor=none;fillColor=none;align=left;verticalAlign=top;spacingLeft=4;spacingRight=4;overflow=hidden;rotatable=0;points=[[0,0.5],[1,0.5]];portConstraint=eastwest;" parent="JeZtBRn4ZJVJt3xqNd3d-0" vertex="1">
          <mxGeometry y="78" width="220" height="26" as="geometry" />
        </mxCell>
        <mxCell id="JeZtBRn4ZJVJt3xqNd3d-317" value="+ objectHeight: int" style="text;strokeColor=none;fillColor=none;align=left;verticalAlign=top;spacingLeft=4;spacingRight=4;overflow=hidden;rotatable=0;points=[[0,0.5],[1,0.5]];portConstraint=eastwest;" parent="JeZtBRn4ZJVJt3xqNd3d-0" vertex="1">
          <mxGeometry y="104" width="220" height="26" as="geometry" />
        </mxCell>
        <mxCell id="JeZtBRn4ZJVJt3xqNd3d-257" value="+ posX: float" style="text;strokeColor=none;fillColor=none;align=left;verticalAlign=top;spacingLeft=4;spacingRight=4;overflow=hidden;rotatable=0;points=[[0,0.5],[1,0.5]];portConstraint=eastwest;" parent="JeZtBRn4ZJVJt3xqNd3d-0" vertex="1">
          <mxGeometry y="130" width="220" height="26" as="geometry" />
        </mxCell>
        <mxCell id="JeZtBRn4ZJVJt3xqNd3d-258" value="+ posY: float" style="text;strokeColor=none;fillColor=none;align=left;verticalAlign=top;spacingLeft=4;spacingRight=4;overflow=hidden;rotatable=0;points=[[0,0.5],[1,0.5]];portConstraint=eastwest;" parent="JeZtBRn4ZJVJt3xqNd3d-0" vertex="1">
          <mxGeometry y="156" width="220" height="26" as="geometry" />
        </mxCell>
        <mxCell id="JeZtBRn4ZJVJt3xqNd3d-259" value="+ deltaposY: float" style="text;strokeColor=none;fillColor=none;align=left;verticalAlign=top;spacingLeft=4;spacingRight=4;overflow=hidden;rotatable=0;points=[[0,0.5],[1,0.5]];portConstraint=eastwest;" parent="JeZtBRn4ZJVJt3xqNd3d-0" vertex="1">
          <mxGeometry y="182" width="220" height="26" as="geometry" />
        </mxCell>
        <mxCell id="JeZtBRn4ZJVJt3xqNd3d-260" value="+ deltaposY: float" style="text;strokeColor=none;fillColor=none;align=left;verticalAlign=top;spacingLeft=4;spacingRight=4;overflow=hidden;rotatable=0;points=[[0,0.5],[1,0.5]];portConstraint=eastwest;" parent="JeZtBRn4ZJVJt3xqNd3d-0" vertex="1">
          <mxGeometry y="208" width="220" height="26" as="geometry" />
        </mxCell>
        <mxCell id="Zpp8Stq3liSMn8kAWy63-0" value="+ deltaTime: float" style="text;strokeColor=none;fillColor=none;align=left;verticalAlign=top;spacingLeft=4;spacingRight=4;overflow=hidden;rotatable=0;points=[[0,0.5],[1,0.5]];portConstraint=eastwest;" parent="JeZtBRn4ZJVJt3xqNd3d-0" vertex="1">
          <mxGeometry y="234" width="220" height="26" as="geometry" />
        </mxCell>
        <mxCell id="JeZtBRn4ZJVJt3xqNd3d-2" value="" style="line;strokeWidth=1;fillColor=none;align=left;verticalAlign=middle;spacingTop=-1;spacingLeft=3;spacingRight=3;rotatable=0;labelPosition=right;points=[];portConstraint=eastwest;" parent="JeZtBRn4ZJVJt3xqNd3d-0" vertex="1">
          <mxGeometry y="260" width="220" height="8" as="geometry" />
        </mxCell>
        <mxCell id="JeZtBRn4ZJVJt3xqNd3d-3" value="+ setObjectName(String s): void" style="text;strokeColor=none;fillColor=none;align=left;verticalAlign=top;spacingLeft=4;spacingRight=4;overflow=hidden;rotatable=0;points=[[0,0.5],[1,0.5]];portConstraint=eastwest;" parent="JeZtBRn4ZJVJt3xqNd3d-0" vertex="1">
          <mxGeometry y="268" width="220" height="26" as="geometry" />
        </mxCell>
        <mxCell id="JeZtBRn4ZJVJt3xqNd3d-261" value="+ getObjectName(): String" style="text;strokeColor=none;fillColor=none;align=left;verticalAlign=top;spacingLeft=4;spacingRight=4;overflow=hidden;rotatable=0;points=[[0,0.5],[1,0.5]];portConstraint=eastwest;" parent="JeZtBRn4ZJVJt3xqNd3d-0" vertex="1">
          <mxGeometry y="294" width="220" height="26" as="geometry" />
        </mxCell>
        <mxCell id="JeZtBRn4ZJVJt3xqNd3d-262" value="+ setObjectAppearance(enum e): void" style="text;strokeColor=none;fillColor=none;align=left;verticalAlign=top;spacingLeft=4;spacingRight=4;overflow=hidden;rotatable=0;points=[[0,0.5],[1,0.5]];portConstraint=eastwest;" parent="JeZtBRn4ZJVJt3xqNd3d-0" vertex="1">
          <mxGeometry y="320" width="220" height="26" as="geometry" />
        </mxCell>
        <mxCell id="JeZtBRn4ZJVJt3xqNd3d-263" value="+ getObjectAppearance(): int" style="text;strokeColor=none;fillColor=none;align=left;verticalAlign=top;spacingLeft=4;spacingRight=4;overflow=hidden;rotatable=0;points=[[0,0.5],[1,0.5]];portConstraint=eastwest;" parent="JeZtBRn4ZJVJt3xqNd3d-0" vertex="1">
          <mxGeometry y="346" width="220" height="26" as="geometry" />
        </mxCell>
        <mxCell id="JeZtBRn4ZJVJt3xqNd3d-321" value="+ update(): int" style="text;strokeColor=none;fillColor=none;align=left;verticalAlign=top;spacingLeft=4;spacingRight=4;overflow=hidden;rotatable=0;points=[[0,0.5],[1,0.5]];portConstraint=eastwest;" parent="JeZtBRn4ZJVJt3xqNd3d-0" vertex="1">
          <mxGeometry y="372" width="220" height="28" as="geometry" />
        </mxCell>
        <mxCell id="JeZtBRn4ZJVJt3xqNd3d-322" value="+ setPosX(float x): void" style="text;strokeColor=none;fillColor=none;align=left;verticalAlign=top;spacingLeft=4;spacingRight=4;overflow=hidden;rotatable=0;points=[[0,0.5],[1,0.5]];portConstraint=eastwest;" parent="JeZtBRn4ZJVJt3xqNd3d-0" vertex="1">
          <mxGeometry y="400" width="220" height="28" as="geometry" />
        </mxCell>
        <mxCell id="JeZtBRn4ZJVJt3xqNd3d-320" value="+ setPosY(float y): void" style="text;strokeColor=none;fillColor=none;align=left;verticalAlign=top;spacingLeft=4;spacingRight=4;overflow=hidden;rotatable=0;points=[[0,0.5],[1,0.5]];portConstraint=eastwest;" parent="JeZtBRn4ZJVJt3xqNd3d-0" vertex="1">
          <mxGeometry y="428" width="220" height="28" as="geometry" />
        </mxCell>
        <mxCell id="JeZtBRn4ZJVJt3xqNd3d-264" value="&lt;p style=&quot;font-size: 16px;&quot;&gt;&lt;font style=&quot;font-size: 16px; line-height: 70%;&quot;&gt;A pályán található dinamikus objektumok mind ebből az osztályből öröklődnek. (Metódusok és további attribútumok még frissülnek).&lt;/font&gt;&lt;/p&gt;" style="text;html=1;strokeColor=none;fillColor=none;spacing=5;spacingTop=-20;whiteSpace=wrap;overflow=hidden;rounded=0;fontSize=16;" parent="WIyWlLk6GJQsqaUBKTNV-1" vertex="1">
          <mxGeometry x="827.5" y="386" width="220" height="110" as="geometry" />
        </mxCell>
        <mxCell id="JeZtBRn4ZJVJt3xqNd3d-265" value="Projectile" style="swimlane;fontStyle=1;align=center;verticalAlign=top;childLayout=stackLayout;horizontal=1;startSize=26;horizontalStack=0;resizeParent=1;resizeParentMax=0;resizeLast=0;collapsible=1;marginBottom=0;" parent="WIyWlLk6GJQsqaUBKTNV-1" vertex="1">
          <mxGeometry x="842.5" y="1066" width="190" height="190" as="geometry" />
        </mxCell>
        <mxCell id="JeZtBRn4ZJVJt3xqNd3d-266" value="+ projectileType: enum" style="text;strokeColor=none;fillColor=none;align=left;verticalAlign=top;spacingLeft=4;spacingRight=4;overflow=hidden;rotatable=0;points=[[0,0.5],[1,0.5]];portConstraint=eastwest;" parent="JeZtBRn4ZJVJt3xqNd3d-265" vertex="1">
          <mxGeometry y="26" width="190" height="26" as="geometry" />
        </mxCell>
        <mxCell id="JeZtBRn4ZJVJt3xqNd3d-269" value="+ projectileSpeed: float" style="text;strokeColor=none;fillColor=none;align=left;verticalAlign=top;spacingLeft=4;spacingRight=4;overflow=hidden;rotatable=0;points=[[0,0.5],[1,0.5]];portConstraint=eastwest;" parent="JeZtBRn4ZJVJt3xqNd3d-265" vertex="1">
          <mxGeometry y="52" width="190" height="26" as="geometry" />
        </mxCell>
        <mxCell id="JeZtBRn4ZJVJt3xqNd3d-267" value="" style="line;strokeWidth=1;fillColor=none;align=left;verticalAlign=middle;spacingTop=-1;spacingLeft=3;spacingRight=3;rotatable=0;labelPosition=right;points=[];portConstraint=eastwest;" parent="JeZtBRn4ZJVJt3xqNd3d-265" vertex="1">
          <mxGeometry y="78" width="190" height="8" as="geometry" />
        </mxCell>
        <mxCell id="JeZtBRn4ZJVJt3xqNd3d-268" value="+ setProjectileType(enum e): void" style="text;strokeColor=none;fillColor=none;align=left;verticalAlign=top;spacingLeft=4;spacingRight=4;overflow=hidden;rotatable=0;points=[[0,0.5],[1,0.5]];portConstraint=eastwest;" parent="JeZtBRn4ZJVJt3xqNd3d-265" vertex="1">
          <mxGeometry y="86" width="190" height="26" as="geometry" />
        </mxCell>
        <mxCell id="JeZtBRn4ZJVJt3xqNd3d-272" value="+ getProjectileType(): int" style="text;strokeColor=none;fillColor=none;align=left;verticalAlign=top;spacingLeft=4;spacingRight=4;overflow=hidden;rotatable=0;points=[[0,0.5],[1,0.5]];portConstraint=eastwest;" parent="JeZtBRn4ZJVJt3xqNd3d-265" vertex="1">
          <mxGeometry y="112" width="190" height="26" as="geometry" />
        </mxCell>
        <mxCell id="JeZtBRn4ZJVJt3xqNd3d-271" value="+ setProjectileSpeed(float f): void" style="text;strokeColor=none;fillColor=none;align=left;verticalAlign=top;spacingLeft=4;spacingRight=4;overflow=hidden;rotatable=0;points=[[0,0.5],[1,0.5]];portConstraint=eastwest;" parent="JeZtBRn4ZJVJt3xqNd3d-265" vertex="1">
          <mxGeometry y="138" width="190" height="26" as="geometry" />
        </mxCell>
        <mxCell id="JeZtBRn4ZJVJt3xqNd3d-270" value="+ getProjectileSpeed(): int" style="text;strokeColor=none;fillColor=none;align=left;verticalAlign=top;spacingLeft=4;spacingRight=4;overflow=hidden;rotatable=0;points=[[0,0.5],[1,0.5]];portConstraint=eastwest;" parent="JeZtBRn4ZJVJt3xqNd3d-265" vertex="1">
          <mxGeometry y="164" width="190" height="26" as="geometry" />
        </mxCell>
        <mxCell id="JeZtBRn4ZJVJt3xqNd3d-275" value="Extends" style="endArrow=block;endSize=16;endFill=0;html=1;exitX=0.5;exitY=0;exitDx=0;exitDy=0;" parent="WIyWlLk6GJQsqaUBKTNV-1" source="JeZtBRn4ZJVJt3xqNd3d-265" edge="1">
          <mxGeometry width="160" relative="1" as="geometry">
            <mxPoint x="982.5" y="1142" as="sourcePoint" />
            <mxPoint x="938" y="962" as="targetPoint" />
          </mxGeometry>
        </mxCell>
        <mxCell id="JeZtBRn4ZJVJt3xqNd3d-276" value="Consumable" style="swimlane;fontStyle=1;align=center;verticalAlign=top;childLayout=stackLayout;horizontal=1;startSize=26;horizontalStack=0;resizeParent=1;resizeParentMax=0;resizeLast=0;collapsible=1;marginBottom=0;" parent="WIyWlLk6GJQsqaUBKTNV-1" vertex="1">
          <mxGeometry x="540" y="1060" width="240" height="86" as="geometry" />
        </mxCell>
        <mxCell id="JeZtBRn4ZJVJt3xqNd3d-277" value="+ consumableType: enum" style="text;strokeColor=none;fillColor=none;align=left;verticalAlign=top;spacingLeft=4;spacingRight=4;overflow=hidden;rotatable=0;points=[[0,0.5],[1,0.5]];portConstraint=eastwest;" parent="JeZtBRn4ZJVJt3xqNd3d-276" vertex="1">
          <mxGeometry y="26" width="240" height="26" as="geometry" />
        </mxCell>
        <mxCell id="JeZtBRn4ZJVJt3xqNd3d-278" value="" style="line;strokeWidth=1;fillColor=none;align=left;verticalAlign=middle;spacingTop=-1;spacingLeft=3;spacingRight=3;rotatable=0;labelPosition=right;points=[];portConstraint=eastwest;" parent="JeZtBRn4ZJVJt3xqNd3d-276" vertex="1">
          <mxGeometry y="52" width="240" height="8" as="geometry" />
        </mxCell>
        <mxCell id="Zpp8Stq3liSMn8kAWy63-38" value="+ spawnConsumable(Consumable c): void" style="text;strokeColor=none;fillColor=none;align=left;verticalAlign=top;spacingLeft=4;spacingRight=4;overflow=hidden;rotatable=0;points=[[0,0.5],[1,0.5]];portConstraint=eastwest;" parent="JeZtBRn4ZJVJt3xqNd3d-276" vertex="1">
          <mxGeometry y="60" width="240" height="26" as="geometry" />
        </mxCell>
        <mxCell id="JeZtBRn4ZJVJt3xqNd3d-280" value="Extends" style="endArrow=block;endSize=16;endFill=0;html=1;exitX=0.5;exitY=0;exitDx=0;exitDy=0;entryX=0;entryY=0.5;entryDx=0;entryDy=0;" parent="WIyWlLk6GJQsqaUBKTNV-1" source="JeZtBRn4ZJVJt3xqNd3d-276" target="JeZtBRn4ZJVJt3xqNd3d-320" edge="1">
          <mxGeometry width="160" relative="1" as="geometry">
            <mxPoint x="922.5" y="1365" as="sourcePoint" />
            <mxPoint x="832.5" y="962" as="targetPoint" />
            <Array as="points">
              <mxPoint x="660" y="1000" />
              <mxPoint x="800" y="1000" />
              <mxPoint x="800" y="948" />
            </Array>
          </mxGeometry>
        </mxCell>
        <mxCell id="JeZtBRn4ZJVJt3xqNd3d-281" value="HealthPotion" style="swimlane;fontStyle=1;align=center;verticalAlign=top;childLayout=stackLayout;horizontal=1;startSize=26;horizontalStack=0;resizeParent=1;resizeParentMax=0;resizeLast=0;collapsible=1;marginBottom=0;" parent="WIyWlLk6GJQsqaUBKTNV-1" vertex="1">
          <mxGeometry x="470" y="1210" width="160" height="86" as="geometry" />
        </mxCell>
        <mxCell id="JeZtBRn4ZJVJt3xqNd3d-282" value="+ healthPoints: int" style="text;strokeColor=none;fillColor=none;align=left;verticalAlign=top;spacingLeft=4;spacingRight=4;overflow=hidden;rotatable=0;points=[[0,0.5],[1,0.5]];portConstraint=eastwest;" parent="JeZtBRn4ZJVJt3xqNd3d-281" vertex="1">
          <mxGeometry y="26" width="160" height="26" as="geometry" />
        </mxCell>
        <mxCell id="JeZtBRn4ZJVJt3xqNd3d-283" value="" style="line;strokeWidth=1;fillColor=none;align=left;verticalAlign=middle;spacingTop=-1;spacingLeft=3;spacingRight=3;rotatable=0;labelPosition=right;points=[];portConstraint=eastwest;" parent="JeZtBRn4ZJVJt3xqNd3d-281" vertex="1">
          <mxGeometry y="52" width="160" height="8" as="geometry" />
        </mxCell>
        <mxCell id="Zpp8Stq3liSMn8kAWy63-37" value="+ use(HealthPotion h): void" style="text;strokeColor=none;fillColor=none;align=left;verticalAlign=top;spacingLeft=4;spacingRight=4;overflow=hidden;rotatable=0;points=[[0,0.5],[1,0.5]];portConstraint=eastwest;" parent="JeZtBRn4ZJVJt3xqNd3d-281" vertex="1">
          <mxGeometry y="60" width="160" height="26" as="geometry" />
        </mxCell>
        <mxCell id="JeZtBRn4ZJVJt3xqNd3d-285" value="Ammo" style="swimlane;fontStyle=1;align=center;verticalAlign=top;childLayout=stackLayout;horizontal=1;startSize=26;horizontalStack=0;resizeParent=1;resizeParentMax=0;resizeLast=0;collapsible=1;marginBottom=0;" parent="WIyWlLk6GJQsqaUBKTNV-1" vertex="1">
          <mxGeometry x="650" y="1210" width="160" height="86" as="geometry" />
        </mxCell>
        <mxCell id="JeZtBRn4ZJVJt3xqNd3d-286" value="+ ammoQuantity: int" style="text;strokeColor=none;fillColor=none;align=left;verticalAlign=top;spacingLeft=4;spacingRight=4;overflow=hidden;rotatable=0;points=[[0,0.5],[1,0.5]];portConstraint=eastwest;" parent="JeZtBRn4ZJVJt3xqNd3d-285" vertex="1">
          <mxGeometry y="26" width="160" height="26" as="geometry" />
        </mxCell>
        <mxCell id="JeZtBRn4ZJVJt3xqNd3d-287" value="" style="line;strokeWidth=1;fillColor=none;align=left;verticalAlign=middle;spacingTop=-1;spacingLeft=3;spacingRight=3;rotatable=0;labelPosition=right;points=[];portConstraint=eastwest;" parent="JeZtBRn4ZJVJt3xqNd3d-285" vertex="1">
          <mxGeometry y="52" width="160" height="8" as="geometry" />
        </mxCell>
        <mxCell id="_JxZ4ZDpzI68w7kfM63D-3" value="+ use(Ammo a): void" style="text;strokeColor=none;fillColor=none;align=left;verticalAlign=top;spacingLeft=4;spacingRight=4;overflow=hidden;rotatable=0;points=[[0,0.5],[1,0.5]];portConstraint=eastwest;" parent="JeZtBRn4ZJVJt3xqNd3d-285" vertex="1">
          <mxGeometry y="60" width="160" height="26" as="geometry" />
        </mxCell>
        <mxCell id="JeZtBRn4ZJVJt3xqNd3d-289" value="Extends" style="endArrow=block;endSize=16;endFill=0;html=1;exitX=0.5;exitY=0;exitDx=0;exitDy=0;entryX=1;entryY=0.5;entryDx=0;entryDy=0;" parent="WIyWlLk6GJQsqaUBKTNV-1" source="JeZtBRn4ZJVJt3xqNd3d-285" target="Zpp8Stq3liSMn8kAWy63-38" edge="1">
          <mxGeometry x="-0.2513" width="160" relative="1" as="geometry">
            <mxPoint x="676.5" y="1292" as="sourcePoint" />
            <mxPoint x="705.46" y="1238.988" as="targetPoint" />
            <Array as="points">
              <mxPoint x="730" y="1180" />
              <mxPoint x="760" y="1180" />
              <mxPoint x="810" y="1180" />
              <mxPoint x="810" y="1133" />
            </Array>
            <mxPoint as="offset" />
          </mxGeometry>
        </mxCell>
        <mxCell id="JeZtBRn4ZJVJt3xqNd3d-290" value="&lt;span style=&quot;font-weight: 400&quot;&gt;Extends&lt;/span&gt;" style="endArrow=block;endSize=16;endFill=0;html=1;exitX=0.5;exitY=0;exitDx=0;exitDy=0;fontStyle=1;entryX=0;entryY=0.5;entryDx=0;entryDy=0;" parent="WIyWlLk6GJQsqaUBKTNV-1" source="JeZtBRn4ZJVJt3xqNd3d-281" target="Zpp8Stq3liSMn8kAWy63-38" edge="1">
          <mxGeometry x="-0.4012" width="160" relative="1" as="geometry">
            <mxPoint x="628.4200000000001" y="1292" as="sourcePoint" />
            <mxPoint x="590" y="1154" as="targetPoint" />
            <Array as="points">
              <mxPoint x="550" y="1180" />
              <mxPoint x="500" y="1180" />
              <mxPoint x="500" y="1133" />
            </Array>
            <mxPoint as="offset" />
          </mxGeometry>
        </mxCell>
        <mxCell id="JeZtBRn4ZJVJt3xqNd3d-291" value="Weapon" style="swimlane;fontStyle=1;align=center;verticalAlign=top;childLayout=stackLayout;horizontal=1;startSize=26;horizontalStack=0;resizeParent=1;resizeParentMax=0;resizeLast=0;collapsible=1;marginBottom=0;" parent="WIyWlLk6GJQsqaUBKTNV-1" vertex="1">
          <mxGeometry x="1182.5" y="1242" width="170" height="190" as="geometry" />
        </mxCell>
        <mxCell id="JeZtBRn4ZJVJt3xqNd3d-292" value="+ weaponType: enum" style="text;strokeColor=none;fillColor=none;align=left;verticalAlign=top;spacingLeft=4;spacingRight=4;overflow=hidden;rotatable=0;points=[[0,0.5],[1,0.5]];portConstraint=eastwest;" parent="JeZtBRn4ZJVJt3xqNd3d-291" vertex="1">
          <mxGeometry y="26" width="170" height="26" as="geometry" />
        </mxCell>
        <mxCell id="JeZtBRn4ZJVJt3xqNd3d-296" value="+ weaponDmg: int" style="text;strokeColor=none;fillColor=none;align=left;verticalAlign=top;spacingLeft=4;spacingRight=4;overflow=hidden;rotatable=0;points=[[0,0.5],[1,0.5]];portConstraint=eastwest;" parent="JeZtBRn4ZJVJt3xqNd3d-291" vertex="1">
          <mxGeometry y="52" width="170" height="26" as="geometry" />
        </mxCell>
        <mxCell id="JeZtBRn4ZJVJt3xqNd3d-297" value="+ weaponAmmo: int" style="text;strokeColor=none;fillColor=none;align=left;verticalAlign=top;spacingLeft=4;spacingRight=4;overflow=hidden;rotatable=0;points=[[0,0.5],[1,0.5]];portConstraint=eastwest;" parent="JeZtBRn4ZJVJt3xqNd3d-291" vertex="1">
          <mxGeometry y="78" width="170" height="26" as="geometry" />
        </mxCell>
        <mxCell id="JeZtBRn4ZJVJt3xqNd3d-298" value="+ weaponProjectile: Projectile" style="text;strokeColor=none;fillColor=none;align=left;verticalAlign=top;spacingLeft=4;spacingRight=4;overflow=hidden;rotatable=0;points=[[0,0.5],[1,0.5]];portConstraint=eastwest;" parent="JeZtBRn4ZJVJt3xqNd3d-291" vertex="1">
          <mxGeometry y="104" width="170" height="26" as="geometry" />
        </mxCell>
        <mxCell id="JeZtBRn4ZJVJt3xqNd3d-299" value="+ weaponFireRate: int" style="text;strokeColor=none;fillColor=none;align=left;verticalAlign=top;spacingLeft=4;spacingRight=4;overflow=hidden;rotatable=0;points=[[0,0.5],[1,0.5]];portConstraint=eastwest;" parent="JeZtBRn4ZJVJt3xqNd3d-291" vertex="1">
          <mxGeometry y="130" width="170" height="26" as="geometry" />
        </mxCell>
        <mxCell id="JeZtBRn4ZJVJt3xqNd3d-293" value="" style="line;strokeWidth=1;fillColor=none;align=left;verticalAlign=middle;spacingTop=-1;spacingLeft=3;spacingRight=3;rotatable=0;labelPosition=right;points=[];portConstraint=eastwest;" parent="JeZtBRn4ZJVJt3xqNd3d-291" vertex="1">
          <mxGeometry y="156" width="170" height="8" as="geometry" />
        </mxCell>
        <mxCell id="Zpp8Stq3liSMn8kAWy63-36" value="+ shoot(Weapon w): void" style="text;strokeColor=none;fillColor=none;align=left;verticalAlign=top;spacingLeft=4;spacingRight=4;overflow=hidden;rotatable=0;points=[[0,0.5],[1,0.5]];portConstraint=eastwest;" parent="JeZtBRn4ZJVJt3xqNd3d-291" vertex="1">
          <mxGeometry y="164" width="170" height="26" as="geometry" />
        </mxCell>
        <mxCell id="JeZtBRn4ZJVJt3xqNd3d-295" value="Extends" style="endArrow=block;endSize=16;endFill=0;html=1;exitX=0.25;exitY=0;exitDx=0;exitDy=0;entryX=0.859;entryY=1.014;entryDx=0;entryDy=0;entryPerimeter=0;" parent="WIyWlLk6GJQsqaUBKTNV-1" source="JeZtBRn4ZJVJt3xqNd3d-291" target="JeZtBRn4ZJVJt3xqNd3d-320" edge="1">
          <mxGeometry width="160" relative="1" as="geometry">
            <mxPoint x="1012.5" y="1052" as="sourcePoint" />
            <mxPoint x="1021" y="970" as="targetPoint" />
            <Array as="points">
              <mxPoint x="1225" y="1210" />
              <mxPoint x="1130" y="1210" />
              <mxPoint x="1130" y="1020" />
              <mxPoint x="1021" y="1020" />
            </Array>
          </mxGeometry>
        </mxCell>
        <mxCell id="JeZtBRn4ZJVJt3xqNd3d-300" value="Player" style="swimlane;fontStyle=1;align=center;verticalAlign=top;childLayout=stackLayout;horizontal=1;startSize=26;horizontalStack=0;resizeParent=1;resizeParentMax=0;resizeLast=0;collapsible=1;marginBottom=0;" parent="WIyWlLk6GJQsqaUBKTNV-1" vertex="1">
          <mxGeometry x="1182.5" y="926" width="170" height="242" as="geometry" />
        </mxCell>
        <mxCell id="JeZtBRn4ZJVJt3xqNd3d-301" value="+ playerHealth: int" style="text;strokeColor=none;fillColor=none;align=left;verticalAlign=top;spacingLeft=4;spacingRight=4;overflow=hidden;rotatable=0;points=[[0,0.5],[1,0.5]];portConstraint=eastwest;" parent="JeZtBRn4ZJVJt3xqNd3d-300" vertex="1">
          <mxGeometry y="26" width="170" height="26" as="geometry" />
        </mxCell>
        <mxCell id="JeZtBRn4ZJVJt3xqNd3d-302" value="+ playerScore: int" style="text;strokeColor=none;fillColor=none;align=left;verticalAlign=top;spacingLeft=4;spacingRight=4;overflow=hidden;rotatable=0;points=[[0,0.5],[1,0.5]];portConstraint=eastwest;" parent="JeZtBRn4ZJVJt3xqNd3d-300" vertex="1">
          <mxGeometry y="52" width="170" height="26" as="geometry" />
        </mxCell>
        <mxCell id="JeZtBRn4ZJVJt3xqNd3d-303" value="+ playerWeapon: Weapon" style="text;strokeColor=none;fillColor=none;align=left;verticalAlign=top;spacingLeft=4;spacingRight=4;overflow=hidden;rotatable=0;points=[[0,0.5],[1,0.5]];portConstraint=eastwest;" parent="JeZtBRn4ZJVJt3xqNd3d-300" vertex="1">
          <mxGeometry y="78" width="170" height="26" as="geometry" />
        </mxCell>
        <mxCell id="JeZtBRn4ZJVJt3xqNd3d-311" value="+ moveSpeed: float" style="text;strokeColor=none;fillColor=none;align=left;verticalAlign=top;spacingLeft=4;spacingRight=4;overflow=hidden;rotatable=0;points=[[0,0.5],[1,0.5]];portConstraint=eastwest;" parent="JeZtBRn4ZJVJt3xqNd3d-300" vertex="1">
          <mxGeometry y="104" width="170" height="26" as="geometry" />
        </mxCell>
        <mxCell id="JeZtBRn4ZJVJt3xqNd3d-315" value="+ maxSpeed: float" style="text;strokeColor=none;fillColor=none;align=left;verticalAlign=top;spacingLeft=4;spacingRight=4;overflow=hidden;rotatable=0;points=[[0,0.5],[1,0.5]];portConstraint=eastwest;" parent="JeZtBRn4ZJVJt3xqNd3d-300" vertex="1">
          <mxGeometry y="130" width="170" height="26" as="geometry" />
        </mxCell>
        <mxCell id="JeZtBRn4ZJVJt3xqNd3d-312" value="+ maxFallingSpeed: float" style="text;strokeColor=none;fillColor=none;align=left;verticalAlign=top;spacingLeft=4;spacingRight=4;overflow=hidden;rotatable=0;points=[[0,0.5],[1,0.5]];portConstraint=eastwest;" parent="JeZtBRn4ZJVJt3xqNd3d-300" vertex="1">
          <mxGeometry y="156" width="170" height="26" as="geometry" />
        </mxCell>
        <mxCell id="JeZtBRn4ZJVJt3xqNd3d-313" value="+ jumpOffset: float" style="text;strokeColor=none;fillColor=none;align=left;verticalAlign=top;spacingLeft=4;spacingRight=4;overflow=hidden;rotatable=0;points=[[0,0.5],[1,0.5]];portConstraint=eastwest;" parent="JeZtBRn4ZJVJt3xqNd3d-300" vertex="1">
          <mxGeometry y="182" width="170" height="26" as="geometry" />
        </mxCell>
        <mxCell id="JeZtBRn4ZJVJt3xqNd3d-314" value="+ gravity: float&#xa;" style="text;strokeColor=none;fillColor=none;align=left;verticalAlign=top;spacingLeft=4;spacingRight=4;overflow=hidden;rotatable=0;points=[[0,0.5],[1,0.5]];portConstraint=eastwest;" parent="JeZtBRn4ZJVJt3xqNd3d-300" vertex="1">
          <mxGeometry y="208" width="170" height="26" as="geometry" />
        </mxCell>
        <mxCell id="JeZtBRn4ZJVJt3xqNd3d-306" value="" style="line;strokeWidth=1;fillColor=none;align=left;verticalAlign=middle;spacingTop=-1;spacingLeft=3;spacingRight=3;rotatable=0;labelPosition=right;points=[];portConstraint=eastwest;" parent="JeZtBRn4ZJVJt3xqNd3d-300" vertex="1">
          <mxGeometry y="234" width="170" height="8" as="geometry" />
        </mxCell>
        <mxCell id="JeZtBRn4ZJVJt3xqNd3d-308" value="Extends" style="endArrow=block;endSize=16;endFill=0;html=1;entryX=1;entryY=0.5;entryDx=0;entryDy=0;exitX=0.25;exitY=0;exitDx=0;exitDy=0;" parent="WIyWlLk6GJQsqaUBKTNV-1" source="JeZtBRn4ZJVJt3xqNd3d-300" target="JeZtBRn4ZJVJt3xqNd3d-320" edge="1">
          <mxGeometry x="0.1116" width="160" relative="1" as="geometry">
            <mxPoint x="1183" y="926" as="sourcePoint" />
            <mxPoint x="1072.5" y="916" as="targetPoint" />
            <Array as="points">
              <mxPoint x="1225" y="900" />
              <mxPoint x="1140" y="900" />
              <mxPoint x="1140" y="948" />
            </Array>
            <mxPoint as="offset" />
          </mxGeometry>
        </mxCell>
        <mxCell id="JeZtBRn4ZJVJt3xqNd3d-323" value="TileMap" style="swimlane;fontStyle=1;align=center;verticalAlign=top;childLayout=stackLayout;horizontal=1;startSize=26;horizontalStack=0;resizeParent=1;resizeParentMax=0;resizeLast=0;collapsible=1;marginBottom=0;" parent="WIyWlLk6GJQsqaUBKTNV-1" vertex="1">
          <mxGeometry x="160" y="2230" width="160" height="86" as="geometry" />
        </mxCell>
        <mxCell id="JeZtBRn4ZJVJt3xqNd3d-324" value="+ tiles[][]: Tile" style="text;strokeColor=none;fillColor=none;align=left;verticalAlign=top;spacingLeft=4;spacingRight=4;overflow=hidden;rotatable=0;points=[[0,0.5],[1,0.5]];portConstraint=eastwest;" parent="JeZtBRn4ZJVJt3xqNd3d-323" vertex="1">
          <mxGeometry y="26" width="160" height="26" as="geometry" />
        </mxCell>
        <mxCell id="JeZtBRn4ZJVJt3xqNd3d-325" value="" style="line;strokeWidth=1;fillColor=none;align=left;verticalAlign=middle;spacingTop=-1;spacingLeft=3;spacingRight=3;rotatable=0;labelPosition=right;points=[];portConstraint=eastwest;" parent="JeZtBRn4ZJVJt3xqNd3d-323" vertex="1">
          <mxGeometry y="52" width="160" height="8" as="geometry" />
        </mxCell>
        <mxCell id="JeZtBRn4ZJVJt3xqNd3d-326" value="+ draw(): void" style="text;strokeColor=none;fillColor=none;align=left;verticalAlign=top;spacingLeft=4;spacingRight=4;overflow=hidden;rotatable=0;points=[[0,0.5],[1,0.5]];portConstraint=eastwest;" parent="JeZtBRn4ZJVJt3xqNd3d-323" vertex="1">
          <mxGeometry y="60" width="160" height="26" as="geometry" />
        </mxCell>
        <mxCell id="JeZtBRn4ZJVJt3xqNd3d-327" value="Tile" style="swimlane;fontStyle=1;align=center;verticalAlign=top;childLayout=stackLayout;horizontal=1;startSize=26;horizontalStack=0;resizeParent=1;resizeParentMax=0;resizeLast=0;collapsible=1;marginBottom=0;" parent="WIyWlLk6GJQsqaUBKTNV-1" vertex="1">
          <mxGeometry x="160" y="2140" width="160" height="34" as="geometry" />
        </mxCell>
        <mxCell id="JeZtBRn4ZJVJt3xqNd3d-329" value="" style="line;strokeWidth=1;fillColor=none;align=left;verticalAlign=middle;spacingTop=-1;spacingLeft=3;spacingRight=3;rotatable=0;labelPosition=right;points=[];portConstraint=eastwest;" parent="JeZtBRn4ZJVJt3xqNd3d-327" vertex="1">
          <mxGeometry y="26" width="160" height="8" as="geometry" />
        </mxCell>
        <mxCell id="JeZtBRn4ZJVJt3xqNd3d-332" value="&lt;p style=&quot;font-size: 15px;&quot;&gt;&lt;font style=&quot;font-size: 15px; line-height: 70%;&quot;&gt;TileMap generálása txt fájlból, a beolvasott Tile források alapján.&lt;/font&gt;&lt;/p&gt;" style="text;html=1;strokeColor=none;fillColor=none;spacing=5;spacingTop=-20;whiteSpace=wrap;overflow=hidden;rounded=0;fontSize=15;" parent="WIyWlLk6GJQsqaUBKTNV-1" vertex="1">
          <mxGeometry x="160" y="2060" width="240" height="70" as="geometry" />
        </mxCell>
        <mxCell id="JeZtBRn4ZJVJt3xqNd3d-333" value="HUD" style="swimlane;fontStyle=1;align=center;verticalAlign=top;childLayout=stackLayout;horizontal=1;startSize=26;horizontalStack=0;resizeParent=1;resizeParentMax=0;resizeLast=0;collapsible=1;marginBottom=0;" parent="WIyWlLk6GJQsqaUBKTNV-1" vertex="1">
          <mxGeometry x="400" y="2416" width="220" height="268" as="geometry" />
        </mxCell>
        <mxCell id="JeZtBRn4ZJVJt3xqNd3d-343" value="+ enemyHealthBarUI: JProgressBar " style="text;align=left;verticalAlign=top;spacingLeft=4;spacingRight=4;overflow=hidden;rotatable=0;points=[[0,0.5],[1,0.5]];portConstraint=eastwest;rounded=0;shadow=0;html=0;" parent="JeZtBRn4ZJVJt3xqNd3d-333" vertex="1">
          <mxGeometry y="26" width="220" height="26" as="geometry" />
        </mxCell>
        <mxCell id="JeZtBRn4ZJVJt3xqNd3d-342" value="+ enemyScoreUI: JTextField " style="text;align=left;verticalAlign=top;spacingLeft=4;spacingRight=4;overflow=hidden;rotatable=0;points=[[0,0.5],[1,0.5]];portConstraint=eastwest;rounded=0;shadow=0;html=0;" parent="JeZtBRn4ZJVJt3xqNd3d-333" vertex="1">
          <mxGeometry y="52" width="220" height="26" as="geometry" />
        </mxCell>
        <mxCell id="JeZtBRn4ZJVJt3xqNd3d-341" value="+ enemyNameUI: JTextField " style="text;align=left;verticalAlign=top;spacingLeft=4;spacingRight=4;overflow=hidden;rotatable=0;points=[[0,0.5],[1,0.5]];portConstraint=eastwest;rounded=0;shadow=0;html=0;" parent="JeZtBRn4ZJVJt3xqNd3d-333" vertex="1">
          <mxGeometry y="78" width="220" height="26" as="geometry" />
        </mxCell>
        <mxCell id="JeZtBRn4ZJVJt3xqNd3d-340" value="+ playerAmmoUI: JTextField " style="text;align=left;verticalAlign=top;spacingLeft=4;spacingRight=4;overflow=hidden;rotatable=0;points=[[0,0.5],[1,0.5]];portConstraint=eastwest;rounded=0;shadow=0;html=0;" parent="JeZtBRn4ZJVJt3xqNd3d-333" vertex="1">
          <mxGeometry y="104" width="220" height="26" as="geometry" />
        </mxCell>
        <mxCell id="JeZtBRn4ZJVJt3xqNd3d-339" value="+ playerHealthBarUI: JProgressBar " style="text;align=left;verticalAlign=top;spacingLeft=4;spacingRight=4;overflow=hidden;rotatable=0;points=[[0,0.5],[1,0.5]];portConstraint=eastwest;rounded=0;shadow=0;html=0;" parent="JeZtBRn4ZJVJt3xqNd3d-333" vertex="1">
          <mxGeometry y="130" width="220" height="26" as="geometry" />
        </mxCell>
        <mxCell id="JeZtBRn4ZJVJt3xqNd3d-338" value="+ playerScoreUI: JTextField " style="text;align=left;verticalAlign=top;spacingLeft=4;spacingRight=4;overflow=hidden;rotatable=0;points=[[0,0.5],[1,0.5]];portConstraint=eastwest;rounded=0;shadow=0;html=0;" parent="JeZtBRn4ZJVJt3xqNd3d-333" vertex="1">
          <mxGeometry y="156" width="220" height="26" as="geometry" />
        </mxCell>
        <mxCell id="JeZtBRn4ZJVJt3xqNd3d-337" value="+ playerNameUI: JTextField " style="text;align=left;verticalAlign=top;spacingLeft=4;spacingRight=4;overflow=hidden;rotatable=0;points=[[0,0.5],[1,0.5]];portConstraint=eastwest;rounded=0;shadow=0;html=0;" parent="JeZtBRn4ZJVJt3xqNd3d-333" vertex="1">
          <mxGeometry y="182" width="220" height="26" as="geometry" />
        </mxCell>
        <mxCell id="JeZtBRn4ZJVJt3xqNd3d-335" value="" style="line;strokeWidth=1;fillColor=none;align=left;verticalAlign=middle;spacingTop=-1;spacingLeft=3;spacingRight=3;rotatable=0;labelPosition=right;points=[];portConstraint=eastwest;" parent="JeZtBRn4ZJVJt3xqNd3d-333" vertex="1">
          <mxGeometry y="208" width="220" height="8" as="geometry" />
        </mxCell>
        <mxCell id="JeZtBRn4ZJVJt3xqNd3d-336" value="+ draw(): void" style="text;strokeColor=none;fillColor=none;align=left;verticalAlign=top;spacingLeft=4;spacingRight=4;overflow=hidden;rotatable=0;points=[[0,0.5],[1,0.5]];portConstraint=eastwest;" parent="JeZtBRn4ZJVJt3xqNd3d-333" vertex="1">
          <mxGeometry y="216" width="220" height="26" as="geometry" />
        </mxCell>
        <mxCell id="JeZtBRn4ZJVJt3xqNd3d-344" value="+ update(): void" style="text;strokeColor=none;fillColor=none;align=left;verticalAlign=top;spacingLeft=4;spacingRight=4;overflow=hidden;rotatable=0;points=[[0,0.5],[1,0.5]];portConstraint=eastwest;" parent="JeZtBRn4ZJVJt3xqNd3d-333" vertex="1">
          <mxGeometry y="242" width="220" height="26" as="geometry" />
        </mxCell>
        <mxCell id="JeZtBRn4ZJVJt3xqNd3d-345" value="EscapeMenu" style="swimlane;fontStyle=1;align=center;verticalAlign=top;childLayout=stackLayout;horizontal=1;startSize=26;horizontalStack=0;resizeParent=1;resizeParentMax=0;resizeLast=0;collapsible=1;marginBottom=0;" parent="WIyWlLk6GJQsqaUBKTNV-1" vertex="1">
          <mxGeometry x="160" y="2416" width="200" height="216" as="geometry" />
        </mxCell>
        <mxCell id="JeZtBRn4ZJVJt3xqNd3d-358" value="+ pauseMenuEnabled: boolean" style="text;align=left;verticalAlign=top;spacingLeft=4;spacingRight=4;overflow=hidden;rotatable=0;points=[[0,0.5],[1,0.5]];portConstraint=eastwest;" parent="JeZtBRn4ZJVJt3xqNd3d-345" vertex="1">
          <mxGeometry y="26" width="200" height="26" as="geometry" />
        </mxCell>
        <mxCell id="JeZtBRn4ZJVJt3xqNd3d-357" value="+ inGameQuit: JButton" style="text;align=left;verticalAlign=top;spacingLeft=4;spacingRight=4;overflow=hidden;rotatable=0;points=[[0,0.5],[1,0.5]];portConstraint=eastwest;" parent="JeZtBRn4ZJVJt3xqNd3d-345" vertex="1">
          <mxGeometry y="52" width="200" height="26" as="geometry" />
        </mxCell>
        <mxCell id="JeZtBRn4ZJVJt3xqNd3d-356" value="+ inGameMenu: JPanel" style="text;align=left;verticalAlign=top;spacingLeft=4;spacingRight=4;overflow=hidden;rotatable=0;points=[[0,0.5],[1,0.5]];portConstraint=eastwest;" parent="JeZtBRn4ZJVJt3xqNd3d-345" vertex="1">
          <mxGeometry y="78" width="200" height="26" as="geometry" />
        </mxCell>
        <mxCell id="JeZtBRn4ZJVJt3xqNd3d-353" value="" style="line;strokeWidth=1;fillColor=none;align=left;verticalAlign=middle;spacingTop=-1;spacingLeft=3;spacingRight=3;rotatable=0;labelPosition=right;points=[];portConstraint=eastwest;" parent="JeZtBRn4ZJVJt3xqNd3d-345" vertex="1">
          <mxGeometry y="104" width="200" height="8" as="geometry" />
        </mxCell>
        <mxCell id="JeZtBRn4ZJVJt3xqNd3d-354" value="+ returnToGame(): void" style="text;strokeColor=none;fillColor=none;align=left;verticalAlign=top;spacingLeft=4;spacingRight=4;overflow=hidden;rotatable=0;points=[[0,0.5],[1,0.5]];portConstraint=eastwest;" parent="JeZtBRn4ZJVJt3xqNd3d-345" vertex="1">
          <mxGeometry y="112" width="200" height="26" as="geometry" />
        </mxCell>
        <mxCell id="JeZtBRn4ZJVJt3xqNd3d-355" value="+ quitToMenu(): void" style="text;strokeColor=none;fillColor=none;align=left;verticalAlign=top;spacingLeft=4;spacingRight=4;overflow=hidden;rotatable=0;points=[[0,0.5],[1,0.5]];portConstraint=eastwest;" parent="JeZtBRn4ZJVJt3xqNd3d-345" vertex="1">
          <mxGeometry y="138" width="200" height="26" as="geometry" />
        </mxCell>
        <mxCell id="JeZtBRn4ZJVJt3xqNd3d-359" value="+ showPauseMenu(): void" style="text;align=left;verticalAlign=top;spacingLeft=4;spacingRight=4;overflow=hidden;rotatable=0;points=[[0,0.5],[1,0.5]];portConstraint=eastwest;" parent="JeZtBRn4ZJVJt3xqNd3d-345" vertex="1">
          <mxGeometry y="164" width="200" height="26" as="geometry" />
        </mxCell>
        <mxCell id="JeZtBRn4ZJVJt3xqNd3d-360" value="+ hidePauseMenu(): void" style="text;align=left;verticalAlign=top;spacingLeft=4;spacingRight=4;overflow=hidden;rotatable=0;points=[[0,0.5],[1,0.5]];portConstraint=eastwest;" parent="JeZtBRn4ZJVJt3xqNd3d-345" vertex="1">
          <mxGeometry y="190" width="200" height="26" as="geometry" />
        </mxCell>
        <mxCell id="JeZtBRn4ZJVJt3xqNd3d-366" value="Main" style="swimlane;fontStyle=1;align=center;verticalAlign=top;childLayout=stackLayout;horizontal=1;startSize=26;horizontalStack=0;resizeParent=1;resizeParentMax=0;resizeLast=0;collapsible=1;marginBottom=0;" parent="WIyWlLk6GJQsqaUBKTNV-1" vertex="1">
          <mxGeometry x="540" y="1657" width="160" height="60" as="geometry" />
        </mxCell>
        <mxCell id="JeZtBRn4ZJVJt3xqNd3d-367" value="+ duelingFates: JFrame" style="text;strokeColor=none;fillColor=none;align=left;verticalAlign=top;spacingLeft=4;spacingRight=4;overflow=hidden;rotatable=0;points=[[0,0.5],[1,0.5]];portConstraint=eastwest;" parent="JeZtBRn4ZJVJt3xqNd3d-366" vertex="1">
          <mxGeometry y="26" width="160" height="26" as="geometry" />
        </mxCell>
        <mxCell id="JeZtBRn4ZJVJt3xqNd3d-368" value="" style="line;strokeWidth=1;fillColor=none;align=left;verticalAlign=middle;spacingTop=-1;spacingLeft=3;spacingRight=3;rotatable=0;labelPosition=right;points=[];portConstraint=eastwest;" parent="JeZtBRn4ZJVJt3xqNd3d-366" vertex="1">
          <mxGeometry y="52" width="160" height="8" as="geometry" />
        </mxCell>
        <mxCell id="JeZtBRn4ZJVJt3xqNd3d-370" value="MainProcess" style="swimlane;fontStyle=1;align=center;verticalAlign=top;childLayout=stackLayout;horizontal=1;startSize=26;horizontalStack=0;resizeParent=1;resizeParentMax=0;resizeLast=0;collapsible=1;marginBottom=0;" parent="WIyWlLk6GJQsqaUBKTNV-1" vertex="1">
          <mxGeometry x="800" y="1657" width="190" height="164" as="geometry" />
        </mxCell>
        <mxCell id="JeZtBRn4ZJVJt3xqNd3d-371" value="+ thread1: Thread" style="text;strokeColor=none;fillColor=none;align=left;verticalAlign=top;spacingLeft=4;spacingRight=4;overflow=hidden;rotatable=0;points=[[0,0.5],[1,0.5]];portConstraint=eastwest;" parent="JeZtBRn4ZJVJt3xqNd3d-370" vertex="1">
          <mxGeometry y="26" width="190" height="26" as="geometry" />
        </mxCell>
        <mxCell id="JeZtBRn4ZJVJt3xqNd3d-376" value="+ stateManager: StateManager" style="text;strokeColor=none;fillColor=none;align=left;verticalAlign=top;spacingLeft=4;spacingRight=4;overflow=hidden;rotatable=0;points=[[0,0.5],[1,0.5]];portConstraint=eastwest;" parent="JeZtBRn4ZJVJt3xqNd3d-370" vertex="1">
          <mxGeometry y="52" width="190" height="26" as="geometry" />
        </mxCell>
        <mxCell id="JeZtBRn4ZJVJt3xqNd3d-372" value="" style="line;strokeWidth=1;fillColor=none;align=left;verticalAlign=middle;spacingTop=-1;spacingLeft=3;spacingRight=3;rotatable=0;labelPosition=right;points=[];portConstraint=eastwest;" parent="JeZtBRn4ZJVJt3xqNd3d-370" vertex="1">
          <mxGeometry y="78" width="190" height="8" as="geometry" />
        </mxCell>
        <mxCell id="JeZtBRn4ZJVJt3xqNd3d-373" value="+ draw(): void" style="text;strokeColor=none;fillColor=none;align=left;verticalAlign=top;spacingLeft=4;spacingRight=4;overflow=hidden;rotatable=0;points=[[0,0.5],[1,0.5]];portConstraint=eastwest;" parent="JeZtBRn4ZJVJt3xqNd3d-370" vertex="1">
          <mxGeometry y="86" width="190" height="26" as="geometry" />
        </mxCell>
        <mxCell id="JeZtBRn4ZJVJt3xqNd3d-374" value="+ update(): void" style="text;strokeColor=none;fillColor=none;align=left;verticalAlign=top;spacingLeft=4;spacingRight=4;overflow=hidden;rotatable=0;points=[[0,0.5],[1,0.5]];portConstraint=eastwest;" parent="JeZtBRn4ZJVJt3xqNd3d-370" vertex="1">
          <mxGeometry y="112" width="190" height="26" as="geometry" />
        </mxCell>
        <mxCell id="JeZtBRn4ZJVJt3xqNd3d-375" value="+ render(): void" style="text;strokeColor=none;fillColor=none;align=left;verticalAlign=top;spacingLeft=4;spacingRight=4;overflow=hidden;rotatable=0;points=[[0,0.5],[1,0.5]];portConstraint=eastwest;" parent="JeZtBRn4ZJVJt3xqNd3d-370" vertex="1">
          <mxGeometry y="138" width="190" height="26" as="geometry" />
        </mxCell>
        <mxCell id="JeZtBRn4ZJVJt3xqNd3d-377" value="Extends" style="endArrow=block;endSize=16;endFill=0;html=1;exitX=0.5;exitY=0;exitDx=0;exitDy=0;entryX=0.5;entryY=1;entryDx=0;entryDy=0;" parent="WIyWlLk6GJQsqaUBKTNV-1" source="JeZtBRn4ZJVJt3xqNd3d-370" target="JeZtBRn4ZJVJt3xqNd3d-378" edge="1">
          <mxGeometry width="160" relative="1" as="geometry">
            <mxPoint x="756" y="1694.06" as="sourcePoint" />
            <mxPoint x="858" y="1557" as="targetPoint" />
          </mxGeometry>
        </mxCell>
        <mxCell id="JeZtBRn4ZJVJt3xqNd3d-378" value="JPanel" style="html=1;" parent="WIyWlLk6GJQsqaUBKTNV-1" vertex="1">
          <mxGeometry x="840" y="1540" width="110" height="50" as="geometry" />
        </mxCell>
        <mxCell id="JeZtBRn4ZJVJt3xqNd3d-380" value="StateManager" style="swimlane;fontStyle=1;align=center;verticalAlign=top;childLayout=stackLayout;horizontal=1;startSize=26;horizontalStack=0;resizeParent=1;resizeParentMax=0;resizeLast=0;collapsible=1;marginBottom=0;" parent="WIyWlLk6GJQsqaUBKTNV-1" vertex="1">
          <mxGeometry x="1220" y="1775" width="160" height="216" as="geometry" />
        </mxCell>
        <mxCell id="JeZtBRn4ZJVJt3xqNd3d-381" value="+ gameStates: ArrayList" style="text;strokeColor=none;fillColor=none;align=left;verticalAlign=top;spacingLeft=4;spacingRight=4;overflow=hidden;rotatable=0;points=[[0,0.5],[1,0.5]];portConstraint=eastwest;" parent="JeZtBRn4ZJVJt3xqNd3d-380" vertex="1">
          <mxGeometry y="26" width="160" height="26" as="geometry" />
        </mxCell>
        <mxCell id="JeZtBRn4ZJVJt3xqNd3d-383" value="+ MAINMENUSTATE: int" style="text;strokeColor=none;fillColor=none;align=left;verticalAlign=top;spacingLeft=4;spacingRight=4;overflow=hidden;rotatable=0;points=[[0,0.5],[1,0.5]];portConstraint=eastwest;" parent="JeZtBRn4ZJVJt3xqNd3d-380" vertex="1">
          <mxGeometry y="52" width="160" height="26" as="geometry" />
        </mxCell>
        <mxCell id="JeZtBRn4ZJVJt3xqNd3d-384" value="+ JOINSTATE: int" style="text;strokeColor=none;fillColor=none;align=left;verticalAlign=top;spacingLeft=4;spacingRight=4;overflow=hidden;rotatable=0;points=[[0,0.5],[1,0.5]];portConstraint=eastwest;" parent="JeZtBRn4ZJVJt3xqNd3d-380" vertex="1">
          <mxGeometry y="78" width="160" height="26" as="geometry" />
        </mxCell>
        <mxCell id="JeZtBRn4ZJVJt3xqNd3d-385" value="+ HOSTSTATE: int" style="text;strokeColor=none;fillColor=none;align=left;verticalAlign=top;spacingLeft=4;spacingRight=4;overflow=hidden;rotatable=0;points=[[0,0.5],[1,0.5]];portConstraint=eastwest;" parent="JeZtBRn4ZJVJt3xqNd3d-380" vertex="1">
          <mxGeometry y="104" width="160" height="26" as="geometry" />
        </mxCell>
        <mxCell id="JeZtBRn4ZJVJt3xqNd3d-386" value="+ GAMEPLAYSTATE: int" style="text;strokeColor=none;fillColor=none;align=left;verticalAlign=top;spacingLeft=4;spacingRight=4;overflow=hidden;rotatable=0;points=[[0,0.5],[1,0.5]];portConstraint=eastwest;" parent="JeZtBRn4ZJVJt3xqNd3d-380" vertex="1">
          <mxGeometry y="130" width="160" height="26" as="geometry" />
        </mxCell>
        <mxCell id="JeZtBRn4ZJVJt3xqNd3d-387" value="+ SCORESTATE: int" style="text;strokeColor=none;fillColor=none;align=left;verticalAlign=top;spacingLeft=4;spacingRight=4;overflow=hidden;rotatable=0;points=[[0,0.5],[1,0.5]];portConstraint=eastwest;" parent="JeZtBRn4ZJVJt3xqNd3d-380" vertex="1">
          <mxGeometry y="156" width="160" height="26" as="geometry" />
        </mxCell>
        <mxCell id="MMSGL0OMwupSHAJdwORb-0" value="+ SETTINGSSTATE: int" style="text;strokeColor=none;fillColor=none;align=left;verticalAlign=top;spacingLeft=4;spacingRight=4;overflow=hidden;rotatable=0;points=[[0,0.5],[1,0.5]];portConstraint=eastwest;" parent="JeZtBRn4ZJVJt3xqNd3d-380" vertex="1">
          <mxGeometry y="182" width="160" height="26" as="geometry" />
        </mxCell>
        <mxCell id="JeZtBRn4ZJVJt3xqNd3d-382" value="" style="line;strokeWidth=1;fillColor=none;align=left;verticalAlign=middle;spacingTop=-1;spacingLeft=3;spacingRight=3;rotatable=0;labelPosition=right;points=[];portConstraint=eastwest;" parent="JeZtBRn4ZJVJt3xqNd3d-380" vertex="1">
          <mxGeometry y="208" width="160" height="8" as="geometry" />
        </mxCell>
        <mxCell id="JeZtBRn4ZJVJt3xqNd3d-388" value="GameState (Abstract ősosztály)" style="swimlane;fontStyle=1;align=center;verticalAlign=top;childLayout=stackLayout;horizontal=1;startSize=26;horizontalStack=0;resizeParent=1;resizeParentMax=0;resizeLast=0;collapsible=1;marginBottom=0;" parent="WIyWlLk6GJQsqaUBKTNV-1" vertex="1">
          <mxGeometry x="790" y="1900" width="210" height="138" as="geometry" />
        </mxCell>
        <mxCell id="JeZtBRn4ZJVJt3xqNd3d-389" value="+ stateM: StateManager" style="text;strokeColor=none;fillColor=none;align=left;verticalAlign=top;spacingLeft=4;spacingRight=4;overflow=hidden;rotatable=0;points=[[0,0.5],[1,0.5]];portConstraint=eastwest;" parent="JeZtBRn4ZJVJt3xqNd3d-388" vertex="1">
          <mxGeometry y="26" width="210" height="26" as="geometry" />
        </mxCell>
        <mxCell id="JeZtBRn4ZJVJt3xqNd3d-390" value="" style="line;strokeWidth=1;fillColor=none;align=left;verticalAlign=middle;spacingTop=-1;spacingLeft=3;spacingRight=3;rotatable=0;labelPosition=right;points=[];portConstraint=eastwest;" parent="JeZtBRn4ZJVJt3xqNd3d-388" vertex="1">
          <mxGeometry y="52" width="210" height="8" as="geometry" />
        </mxCell>
        <mxCell id="JeZtBRn4ZJVJt3xqNd3d-391" value="+ init(): void" style="text;strokeColor=none;fillColor=none;align=left;verticalAlign=top;spacingLeft=4;spacingRight=4;overflow=hidden;rotatable=0;points=[[0,0.5],[1,0.5]];portConstraint=eastwest;" parent="JeZtBRn4ZJVJt3xqNd3d-388" vertex="1">
          <mxGeometry y="60" width="210" height="26" as="geometry" />
        </mxCell>
        <mxCell id="JeZtBRn4ZJVJt3xqNd3d-392" value="+ draw(): void" style="text;strokeColor=none;fillColor=none;align=left;verticalAlign=top;spacingLeft=4;spacingRight=4;overflow=hidden;rotatable=0;points=[[0,0.5],[1,0.5]];portConstraint=eastwest;" parent="JeZtBRn4ZJVJt3xqNd3d-388" vertex="1">
          <mxGeometry y="86" width="210" height="26" as="geometry" />
        </mxCell>
        <mxCell id="JeZtBRn4ZJVJt3xqNd3d-393" value="+ update(): void" style="text;strokeColor=none;fillColor=none;align=left;verticalAlign=top;spacingLeft=4;spacingRight=4;overflow=hidden;rotatable=0;points=[[0,0.5],[1,0.5]];portConstraint=eastwest;" parent="JeZtBRn4ZJVJt3xqNd3d-388" vertex="1">
          <mxGeometry y="112" width="210" height="26" as="geometry" />
        </mxCell>
        <mxCell id="JeZtBRn4ZJVJt3xqNd3d-404" value="SettingsState" style="swimlane;fontStyle=1;align=center;verticalAlign=top;childLayout=stackLayout;horizontal=1;startSize=26;horizontalStack=0;resizeParent=1;resizeParentMax=0;resizeLast=0;collapsible=1;marginBottom=0;" parent="WIyWlLk6GJQsqaUBKTNV-1" vertex="1">
          <mxGeometry x="660" y="2416" width="210" height="138" as="geometry" />
        </mxCell>
        <mxCell id="JeZtBRn4ZJVJt3xqNd3d-412" value="+ playerName: JTextField" style="text;align=left;verticalAlign=top;spacingLeft=4;spacingRight=4;overflow=hidden;rotatable=0;points=[[0,0.5],[1,0.5]];portConstraint=eastwest;" parent="JeZtBRn4ZJVJt3xqNd3d-404" vertex="1">
          <mxGeometry y="26" width="210" height="26" as="geometry" />
        </mxCell>
        <mxCell id="JeZtBRn4ZJVJt3xqNd3d-411" value="+ characterSelection: JRadioButton" style="text;align=left;verticalAlign=top;spacingLeft=4;spacingRight=4;overflow=hidden;rotatable=0;points=[[0,0.5],[1,0.5]];portConstraint=eastwest;" parent="JeZtBRn4ZJVJt3xqNd3d-404" vertex="1">
          <mxGeometry y="52" width="210" height="26" as="geometry" />
        </mxCell>
        <mxCell id="JeZtBRn4ZJVJt3xqNd3d-410" value="+ buttonBackToMain: JButton" style="text;align=left;verticalAlign=top;spacingLeft=4;spacingRight=4;overflow=hidden;rotatable=0;points=[[0,0.5],[1,0.5]];portConstraint=eastwest;" parent="JeZtBRn4ZJVJt3xqNd3d-404" vertex="1">
          <mxGeometry y="78" width="210" height="26" as="geometry" />
        </mxCell>
        <mxCell id="JeZtBRn4ZJVJt3xqNd3d-413" value="+ background: ImageIcon" style="text;align=left;verticalAlign=top;spacingLeft=4;spacingRight=4;overflow=hidden;rotatable=0;points=[[0,0.5],[1,0.5]];portConstraint=eastwest;" parent="JeZtBRn4ZJVJt3xqNd3d-404" vertex="1">
          <mxGeometry y="104" width="210" height="26" as="geometry" />
        </mxCell>
        <mxCell id="JeZtBRn4ZJVJt3xqNd3d-406" value="" style="line;strokeWidth=1;fillColor=none;align=left;verticalAlign=middle;spacingTop=-1;spacingLeft=3;spacingRight=3;rotatable=0;labelPosition=right;points=[];portConstraint=eastwest;" parent="JeZtBRn4ZJVJt3xqNd3d-404" vertex="1">
          <mxGeometry y="130" width="210" height="8" as="geometry" />
        </mxCell>
        <mxCell id="JeZtBRn4ZJVJt3xqNd3d-414" value="JoinState" style="swimlane;fontStyle=1;align=center;verticalAlign=top;childLayout=stackLayout;horizontal=1;startSize=26;horizontalStack=0;resizeParent=1;resizeParentMax=0;resizeLast=0;collapsible=1;marginBottom=0;" parent="WIyWlLk6GJQsqaUBKTNV-1" vertex="1">
          <mxGeometry x="660" y="2180" width="210" height="138" as="geometry" />
        </mxCell>
        <mxCell id="JeZtBRn4ZJVJt3xqNd3d-437" value="+ buttonJoin: JButton" style="text;align=left;verticalAlign=top;spacingLeft=4;spacingRight=4;overflow=hidden;rotatable=0;points=[[0,0.5],[1,0.5]];portConstraint=eastwest;" parent="JeZtBRn4ZJVJt3xqNd3d-414" vertex="1">
          <mxGeometry y="26" width="210" height="26" as="geometry" />
        </mxCell>
        <mxCell id="JeZtBRn4ZJVJt3xqNd3d-439" value="+ inputServerPassword: JTextField" style="text;align=left;verticalAlign=top;spacingLeft=4;spacingRight=4;overflow=hidden;rotatable=0;points=[[0,0.5],[1,0.5]];portConstraint=eastwest;" parent="JeZtBRn4ZJVJt3xqNd3d-414" vertex="1">
          <mxGeometry y="52" width="210" height="26" as="geometry" />
        </mxCell>
        <mxCell id="JeZtBRn4ZJVJt3xqNd3d-438" value="+ buttonBackToMain: JButton" style="text;align=left;verticalAlign=top;spacingLeft=4;spacingRight=4;overflow=hidden;rotatable=0;points=[[0,0.5],[1,0.5]];portConstraint=eastwest;" parent="JeZtBRn4ZJVJt3xqNd3d-414" vertex="1">
          <mxGeometry y="78" width="210" height="26" as="geometry" />
        </mxCell>
        <mxCell id="JeZtBRn4ZJVJt3xqNd3d-441" value="+ background: ImageIcon" style="text;align=left;verticalAlign=top;spacingLeft=4;spacingRight=4;overflow=hidden;rotatable=0;points=[[0,0.5],[1,0.5]];portConstraint=eastwest;" parent="JeZtBRn4ZJVJt3xqNd3d-414" vertex="1">
          <mxGeometry y="104" width="210" height="26" as="geometry" />
        </mxCell>
        <mxCell id="JeZtBRn4ZJVJt3xqNd3d-419" value="" style="line;strokeWidth=1;fillColor=none;align=left;verticalAlign=middle;spacingTop=-1;spacingLeft=3;spacingRight=3;rotatable=0;labelPosition=right;points=[];portConstraint=eastwest;" parent="JeZtBRn4ZJVJt3xqNd3d-414" vertex="1">
          <mxGeometry y="130" width="210" height="8" as="geometry" />
        </mxCell>
        <mxCell id="JeZtBRn4ZJVJt3xqNd3d-420" value="HostState" style="swimlane;fontStyle=1;align=center;verticalAlign=top;childLayout=stackLayout;horizontal=1;startSize=26;horizontalStack=0;resizeParent=1;resizeParentMax=0;resizeLast=0;collapsible=1;marginBottom=0;" parent="WIyWlLk6GJQsqaUBKTNV-1" vertex="1">
          <mxGeometry x="950" y="2416" width="210" height="164" as="geometry" />
        </mxCell>
        <mxCell id="JeZtBRn4ZJVJt3xqNd3d-433" value="+ buttonStart: JButton" style="text;align=left;verticalAlign=top;spacingLeft=4;spacingRight=4;overflow=hidden;rotatable=0;points=[[0,0.5],[1,0.5]];portConstraint=eastwest;" parent="JeZtBRn4ZJVJt3xqNd3d-420" vertex="1">
          <mxGeometry y="26" width="210" height="26" as="geometry" />
        </mxCell>
        <mxCell id="JeZtBRn4ZJVJt3xqNd3d-432" value="+ mapSelection: JRadioButton" style="text;align=left;verticalAlign=top;spacingLeft=4;spacingRight=4;overflow=hidden;rotatable=0;points=[[0,0.5],[1,0.5]];portConstraint=eastwest;" parent="JeZtBRn4ZJVJt3xqNd3d-420" vertex="1">
          <mxGeometry y="52" width="210" height="26" as="geometry" />
        </mxCell>
        <mxCell id="JeZtBRn4ZJVJt3xqNd3d-435" value="+ matchDuration: JSlider" style="text;align=left;verticalAlign=top;spacingLeft=4;spacingRight=4;overflow=hidden;rotatable=0;points=[[0,0.5],[1,0.5]];portConstraint=eastwest;" parent="JeZtBRn4ZJVJt3xqNd3d-420" vertex="1">
          <mxGeometry y="78" width="210" height="26" as="geometry" />
        </mxCell>
        <mxCell id="JeZtBRn4ZJVJt3xqNd3d-436" value="+ serverPassword: JTextField" style="text;align=left;verticalAlign=top;spacingLeft=4;spacingRight=4;overflow=hidden;rotatable=0;points=[[0,0.5],[1,0.5]];portConstraint=eastwest;" parent="JeZtBRn4ZJVJt3xqNd3d-420" vertex="1">
          <mxGeometry y="104" width="210" height="26" as="geometry" />
        </mxCell>
        <mxCell id="JeZtBRn4ZJVJt3xqNd3d-434" value="+ buttonBackToMain: JButton" style="text;align=left;verticalAlign=top;spacingLeft=4;spacingRight=4;overflow=hidden;rotatable=0;points=[[0,0.5],[1,0.5]];portConstraint=eastwest;" parent="JeZtBRn4ZJVJt3xqNd3d-420" vertex="1">
          <mxGeometry y="130" width="210" height="26" as="geometry" />
        </mxCell>
        <mxCell id="JeZtBRn4ZJVJt3xqNd3d-425" value="" style="line;strokeWidth=1;fillColor=none;align=left;verticalAlign=middle;spacingTop=-1;spacingLeft=3;spacingRight=3;rotatable=0;labelPosition=right;points=[];portConstraint=eastwest;" parent="JeZtBRn4ZJVJt3xqNd3d-420" vertex="1">
          <mxGeometry y="156" width="210" height="8" as="geometry" />
        </mxCell>
        <mxCell id="JeZtBRn4ZJVJt3xqNd3d-426" value="MainMenuState" style="swimlane;fontStyle=1;align=center;verticalAlign=top;childLayout=stackLayout;horizontal=1;startSize=26;horizontalStack=0;resizeParent=1;resizeParentMax=0;resizeLast=0;collapsible=1;marginBottom=0;" parent="WIyWlLk6GJQsqaUBKTNV-1" vertex="1">
          <mxGeometry x="950" y="2180" width="210" height="190" as="geometry" />
        </mxCell>
        <mxCell id="JeZtBRn4ZJVJt3xqNd3d-446" value="+ buttonJoin: JButton" style="text;align=left;verticalAlign=top;spacingLeft=4;spacingRight=4;overflow=hidden;rotatable=0;points=[[0,0.5],[1,0.5]];portConstraint=eastwest;" parent="JeZtBRn4ZJVJt3xqNd3d-426" vertex="1">
          <mxGeometry y="26" width="210" height="26" as="geometry" />
        </mxCell>
        <mxCell id="JeZtBRn4ZJVJt3xqNd3d-445" value="+ buttonHost: JButton" style="text;align=left;verticalAlign=top;spacingLeft=4;spacingRight=4;overflow=hidden;rotatable=0;points=[[0,0.5],[1,0.5]];portConstraint=eastwest;" parent="JeZtBRn4ZJVJt3xqNd3d-426" vertex="1">
          <mxGeometry y="52" width="210" height="26" as="geometry" />
        </mxCell>
        <mxCell id="JeZtBRn4ZJVJt3xqNd3d-444" value="+ buttonSettings: JButton" style="text;align=left;verticalAlign=top;spacingLeft=4;spacingRight=4;overflow=hidden;rotatable=0;points=[[0,0.5],[1,0.5]];portConstraint=eastwest;" parent="JeZtBRn4ZJVJt3xqNd3d-426" vertex="1">
          <mxGeometry y="78" width="210" height="26" as="geometry" />
        </mxCell>
        <mxCell id="JeZtBRn4ZJVJt3xqNd3d-443" value="+ buttonQuit: JButton" style="text;align=left;verticalAlign=top;spacingLeft=4;spacingRight=4;overflow=hidden;rotatable=0;points=[[0,0.5],[1,0.5]];portConstraint=eastwest;" parent="JeZtBRn4ZJVJt3xqNd3d-426" vertex="1">
          <mxGeometry y="104" width="210" height="26" as="geometry" />
        </mxCell>
        <mxCell id="JeZtBRn4ZJVJt3xqNd3d-447" value="+ logoImage: ImageIcon" style="text;align=left;verticalAlign=top;spacingLeft=4;spacingRight=4;overflow=hidden;rotatable=0;points=[[0,0.5],[1,0.5]];portConstraint=eastwest;" parent="JeZtBRn4ZJVJt3xqNd3d-426" vertex="1">
          <mxGeometry y="130" width="210" height="26" as="geometry" />
        </mxCell>
        <mxCell id="JeZtBRn4ZJVJt3xqNd3d-449" value="+ background: ImageIcon" style="text;align=left;verticalAlign=top;spacingLeft=4;spacingRight=4;overflow=hidden;rotatable=0;points=[[0,0.5],[1,0.5]];portConstraint=eastwest;" parent="JeZtBRn4ZJVJt3xqNd3d-426" vertex="1">
          <mxGeometry y="156" width="210" height="26" as="geometry" />
        </mxCell>
        <mxCell id="JeZtBRn4ZJVJt3xqNd3d-431" value="" style="line;strokeWidth=1;fillColor=none;align=left;verticalAlign=middle;spacingTop=-1;spacingLeft=3;spacingRight=3;rotatable=0;labelPosition=right;points=[];portConstraint=eastwest;" parent="JeZtBRn4ZJVJt3xqNd3d-426" vertex="1">
          <mxGeometry y="182" width="210" height="8" as="geometry" />
        </mxCell>
        <mxCell id="JeZtBRn4ZJVJt3xqNd3d-450" value="Extends" style="endArrow=block;endSize=16;endFill=0;html=1;exitX=0.5;exitY=0;exitDx=0;exitDy=0;entryX=0.828;entryY=0.984;entryDx=0;entryDy=0;entryPerimeter=0;" parent="WIyWlLk6GJQsqaUBKTNV-1" source="JeZtBRn4ZJVJt3xqNd3d-426" target="JeZtBRn4ZJVJt3xqNd3d-393" edge="1">
          <mxGeometry x="0.1598" width="160" relative="1" as="geometry">
            <mxPoint x="1037.5" y="2105" as="sourcePoint" />
            <mxPoint x="990" y="2038" as="targetPoint" />
            <Array as="points">
              <mxPoint x="1055" y="2090" />
              <mxPoint x="964" y="2090" />
            </Array>
            <mxPoint as="offset" />
          </mxGeometry>
        </mxCell>
        <mxCell id="JeZtBRn4ZJVJt3xqNd3d-451" value="Extends" style="endArrow=block;endSize=16;endFill=0;html=1;entryX=0.567;entryY=1.038;entryDx=0;entryDy=0;entryPerimeter=0;" parent="WIyWlLk6GJQsqaUBKTNV-1" target="JeZtBRn4ZJVJt3xqNd3d-393" edge="1">
          <mxGeometry width="160" relative="1" as="geometry">
            <mxPoint x="1055" y="2416" as="sourcePoint" />
            <mxPoint x="900" y="2036" as="targetPoint" />
            <Array as="points">
              <mxPoint x="1055" y="2400" />
              <mxPoint x="909" y="2400" />
            </Array>
          </mxGeometry>
        </mxCell>
        <mxCell id="JeZtBRn4ZJVJt3xqNd3d-452" value="extends" style="endArrow=block;endSize=16;endFill=0;html=1;exitX=0.5;exitY=0;exitDx=0;exitDy=0;entryX=0.327;entryY=0.993;entryDx=0;entryDy=0;entryPerimeter=0;" parent="WIyWlLk6GJQsqaUBKTNV-1" source="JeZtBRn4ZJVJt3xqNd3d-414" target="JeZtBRn4ZJVJt3xqNd3d-393" edge="1">
          <mxGeometry x="-0.2833" width="160" relative="1" as="geometry">
            <mxPoint x="685" y="2180" as="sourcePoint" />
            <mxPoint x="845" y="2038" as="targetPoint" />
            <Array as="points">
              <mxPoint x="765" y="2140" />
              <mxPoint x="859" y="2140" />
            </Array>
            <mxPoint as="offset" />
          </mxGeometry>
        </mxCell>
        <mxCell id="JeZtBRn4ZJVJt3xqNd3d-453" value="Extends" style="endArrow=block;endSize=16;endFill=0;html=1;exitX=0.5;exitY=0;exitDx=0;exitDy=0;entryX=0.124;entryY=1;entryDx=0;entryDy=0;entryPerimeter=0;" parent="WIyWlLk6GJQsqaUBKTNV-1" source="JeZtBRn4ZJVJt3xqNd3d-404" target="JeZtBRn4ZJVJt3xqNd3d-393" edge="1">
          <mxGeometry x="0.1916" width="160" relative="1" as="geometry">
            <mxPoint x="620" y="2180" as="sourcePoint" />
            <mxPoint x="816" y="2040" as="targetPoint" />
            <Array as="points">
              <mxPoint x="765" y="2360" />
              <mxPoint x="640" y="2360" />
              <mxPoint x="640" y="2120" />
              <mxPoint x="816" y="2120" />
            </Array>
            <mxPoint as="offset" />
          </mxGeometry>
        </mxCell>
        <mxCell id="JeZtBRn4ZJVJt3xqNd3d-454" value="ScoreState" style="swimlane;fontStyle=1;align=center;verticalAlign=top;childLayout=stackLayout;horizontal=1;startSize=26;horizontalStack=0;resizeParent=1;resizeParentMax=0;resizeLast=0;collapsible=1;marginBottom=0;" parent="WIyWlLk6GJQsqaUBKTNV-1" vertex="1">
          <mxGeometry x="1180" y="2180" width="200" height="398" as="geometry" />
        </mxCell>
        <mxCell id="JeZtBRn4ZJVJt3xqNd3d-460" value="+ panelScore: JPanel" style="text;align=left;verticalAlign=top;spacingLeft=4;spacingRight=4;overflow=hidden;rotatable=0;points=[[0,0.5],[1,0.5]];portConstraint=eastwest;" parent="JeZtBRn4ZJVJt3xqNd3d-454" vertex="1">
          <mxGeometry y="26" width="200" height="26" as="geometry" />
        </mxCell>
        <mxCell id="JeZtBRn4ZJVJt3xqNd3d-465" value="+ scoreTableEnabled: boolean" style="text;align=left;verticalAlign=top;spacingLeft=4;spacingRight=4;overflow=hidden;rotatable=0;points=[[0,0.5],[1,0.5]];portConstraint=eastwest;" parent="JeZtBRn4ZJVJt3xqNd3d-454" vertex="1">
          <mxGeometry y="52" width="200" height="26" as="geometry" />
        </mxCell>
        <mxCell id="JeZtBRn4ZJVJt3xqNd3d-464" value="+ labelScore: JLabel" style="text;align=left;verticalAlign=top;spacingLeft=4;spacingRight=4;overflow=hidden;rotatable=0;points=[[0,0.5],[1,0.5]];portConstraint=eastwest;" parent="JeZtBRn4ZJVJt3xqNd3d-454" vertex="1">
          <mxGeometry y="78" width="200" height="26" as="geometry" />
        </mxCell>
        <mxCell id="JeZtBRn4ZJVJt3xqNd3d-462" value="+ buttonRematch: JButton" style="text;align=left;verticalAlign=top;spacingLeft=4;spacingRight=4;overflow=hidden;rotatable=0;points=[[0,0.5],[1,0.5]];portConstraint=eastwest;" parent="JeZtBRn4ZJVJt3xqNd3d-454" vertex="1">
          <mxGeometry y="104" width="200" height="26" as="geometry" />
        </mxCell>
        <mxCell id="JeZtBRn4ZJVJt3xqNd3d-463" value="+ buttonQuitToMenu: JButton" style="text;align=left;verticalAlign=top;spacingLeft=4;spacingRight=4;overflow=hidden;rotatable=0;points=[[0,0.5],[1,0.5]];portConstraint=eastwest;" parent="JeZtBRn4ZJVJt3xqNd3d-454" vertex="1">
          <mxGeometry y="130" width="200" height="26" as="geometry" />
        </mxCell>
        <mxCell id="JeZtBRn4ZJVJt3xqNd3d-466" value="+ resultsFile: File" style="text;align=left;verticalAlign=top;spacingLeft=4;spacingRight=4;overflow=hidden;rotatable=0;points=[[0,0.5],[1,0.5]];portConstraint=eastwest;" parent="JeZtBRn4ZJVJt3xqNd3d-454" vertex="1">
          <mxGeometry y="156" width="200" height="26" as="geometry" />
        </mxCell>
        <mxCell id="JeZtBRn4ZJVJt3xqNd3d-461" value="+ buttonWriteToFile: JButton" style="text;align=left;verticalAlign=top;spacingLeft=4;spacingRight=4;overflow=hidden;rotatable=0;points=[[0,0.5],[1,0.5]];portConstraint=eastwest;" parent="JeZtBRn4ZJVJt3xqNd3d-454" vertex="1">
          <mxGeometry y="182" width="200" height="26" as="geometry" />
        </mxCell>
        <mxCell id="JeZtBRn4ZJVJt3xqNd3d-459" value="" style="line;strokeWidth=1;fillColor=none;align=left;verticalAlign=middle;spacingTop=-1;spacingLeft=3;spacingRight=3;rotatable=0;labelPosition=right;points=[];portConstraint=eastwest;" parent="JeZtBRn4ZJVJt3xqNd3d-454" vertex="1">
          <mxGeometry y="208" width="200" height="8" as="geometry" />
        </mxCell>
        <mxCell id="JeZtBRn4ZJVJt3xqNd3d-473" value="+ hideScoreTable(): void" style="text;align=left;verticalAlign=top;spacingLeft=4;spacingRight=4;overflow=hidden;rotatable=0;points=[[0,0.5],[1,0.5]];portConstraint=eastwest;" parent="JeZtBRn4ZJVJt3xqNd3d-454" vertex="1">
          <mxGeometry y="216" width="200" height="26" as="geometry" />
        </mxCell>
        <mxCell id="JeZtBRn4ZJVJt3xqNd3d-472" value="+ showScoreTable(): void" style="text;align=left;verticalAlign=top;spacingLeft=4;spacingRight=4;overflow=hidden;rotatable=0;points=[[0,0.5],[1,0.5]];portConstraint=eastwest;" parent="JeZtBRn4ZJVJt3xqNd3d-454" vertex="1">
          <mxGeometry y="242" width="200" height="26" as="geometry" />
        </mxCell>
        <mxCell id="JeZtBRn4ZJVJt3xqNd3d-471" value="+ printPlayersAndScores(): void" style="text;align=left;verticalAlign=top;spacingLeft=4;spacingRight=4;overflow=hidden;rotatable=0;points=[[0,0.5],[1,0.5]];portConstraint=eastwest;" parent="JeZtBRn4ZJVJt3xqNd3d-454" vertex="1">
          <mxGeometry y="268" width="200" height="26" as="geometry" />
        </mxCell>
        <mxCell id="JeZtBRn4ZJVJt3xqNd3d-470" value="+ openFile(): void" style="text;align=left;verticalAlign=top;spacingLeft=4;spacingRight=4;overflow=hidden;rotatable=0;points=[[0,0.5],[1,0.5]];portConstraint=eastwest;" parent="JeZtBRn4ZJVJt3xqNd3d-454" vertex="1">
          <mxGeometry y="294" width="200" height="26" as="geometry" />
        </mxCell>
        <mxCell id="JeZtBRn4ZJVJt3xqNd3d-469" value="+ writeToFile(): void" style="text;align=left;verticalAlign=top;spacingLeft=4;spacingRight=4;overflow=hidden;rotatable=0;points=[[0,0.5],[1,0.5]];portConstraint=eastwest;" parent="JeZtBRn4ZJVJt3xqNd3d-454" vertex="1">
          <mxGeometry y="320" width="200" height="26" as="geometry" />
        </mxCell>
        <mxCell id="JeZtBRn4ZJVJt3xqNd3d-468" value="+ rematch(): void" style="text;align=left;verticalAlign=top;spacingLeft=4;spacingRight=4;overflow=hidden;rotatable=0;points=[[0,0.5],[1,0.5]];portConstraint=eastwest;rounded=0;shadow=0;html=0;" parent="JeZtBRn4ZJVJt3xqNd3d-454" vertex="1">
          <mxGeometry y="346" width="200" height="26" as="geometry" />
        </mxCell>
        <mxCell id="JeZtBRn4ZJVJt3xqNd3d-467" value="+ quitToMenu(): void" style="text;align=left;verticalAlign=top;spacingLeft=4;spacingRight=4;overflow=hidden;rotatable=0;points=[[0,0.5],[1,0.5]];portConstraint=eastwest;rounded=0;shadow=0;html=0;" parent="JeZtBRn4ZJVJt3xqNd3d-454" vertex="1">
          <mxGeometry y="372" width="200" height="26" as="geometry" />
        </mxCell>
        <mxCell id="JeZtBRn4ZJVJt3xqNd3d-474" value="Extends" style="endArrow=block;endSize=16;endFill=0;html=1;exitX=0.5;exitY=0;exitDx=0;exitDy=0;entryX=1;entryY=0.5;entryDx=0;entryDy=0;" parent="WIyWlLk6GJQsqaUBKTNV-1" source="JeZtBRn4ZJVJt3xqNd3d-454" target="JeZtBRn4ZJVJt3xqNd3d-393" edge="1">
          <mxGeometry x="0.3665" width="160" relative="1" as="geometry">
            <mxPoint x="1140" y="2160" as="sourcePoint" />
            <mxPoint x="990" y="2020" as="targetPoint" />
            <Array as="points">
              <mxPoint x="1280" y="2025" />
            </Array>
            <mxPoint as="offset" />
          </mxGeometry>
        </mxCell>
        <mxCell id="JeZtBRn4ZJVJt3xqNd3d-475" value="GameplayState" style="swimlane;fontStyle=1;align=center;verticalAlign=top;childLayout=stackLayout;horizontal=1;startSize=26;horizontalStack=0;resizeParent=1;resizeParentMax=0;resizeLast=0;collapsible=1;marginBottom=0;" parent="WIyWlLk6GJQsqaUBKTNV-1" vertex="1">
          <mxGeometry x="410" y="2180" width="210" height="138" as="geometry" />
        </mxCell>
        <mxCell id="JeZtBRn4ZJVJt3xqNd3d-476" value="+ player1: GameObject etc." style="text;align=left;verticalAlign=top;spacingLeft=4;spacingRight=4;overflow=hidden;rotatable=0;points=[[0,0.5],[1,0.5]];portConstraint=eastwest;fontStyle=1" parent="JeZtBRn4ZJVJt3xqNd3d-475" vertex="1">
          <mxGeometry y="26" width="210" height="26" as="geometry" />
        </mxCell>
        <mxCell id="JeZtBRn4ZJVJt3xqNd3d-481" value="+ gameHud: HUD" style="text;align=left;verticalAlign=top;spacingLeft=4;spacingRight=4;overflow=hidden;rotatable=0;points=[[0,0.5],[1,0.5]];portConstraint=eastwest;" parent="JeZtBRn4ZJVJt3xqNd3d-475" vertex="1">
          <mxGeometry y="52" width="210" height="26" as="geometry" />
        </mxCell>
        <mxCell id="JeZtBRn4ZJVJt3xqNd3d-482" value="+ gameMap: TileMap" style="text;align=left;verticalAlign=top;spacingLeft=4;spacingRight=4;overflow=hidden;rotatable=0;points=[[0,0.5],[1,0.5]];portConstraint=eastwest;" parent="JeZtBRn4ZJVJt3xqNd3d-475" vertex="1">
          <mxGeometry y="78" width="210" height="26" as="geometry" />
        </mxCell>
        <mxCell id="JeZtBRn4ZJVJt3xqNd3d-483" value="+ escapeMenu: EscapeMenu" style="text;align=left;verticalAlign=top;spacingLeft=4;spacingRight=4;overflow=hidden;rotatable=0;points=[[0,0.5],[1,0.5]];portConstraint=eastwest;" parent="JeZtBRn4ZJVJt3xqNd3d-475" vertex="1">
          <mxGeometry y="104" width="210" height="26" as="geometry" />
        </mxCell>
        <mxCell id="JeZtBRn4ZJVJt3xqNd3d-480" value="" style="line;strokeWidth=1;fillColor=none;align=left;verticalAlign=middle;spacingTop=-1;spacingLeft=3;spacingRight=3;rotatable=0;labelPosition=right;points=[];portConstraint=eastwest;" parent="JeZtBRn4ZJVJt3xqNd3d-475" vertex="1">
          <mxGeometry y="130" width="210" height="8" as="geometry" />
        </mxCell>
        <mxCell id="JeZtBRn4ZJVJt3xqNd3d-484" value="Extends" style="endArrow=block;endSize=16;endFill=0;html=1;entryX=0;entryY=0.5;entryDx=0;entryDy=0;exitX=0.5;exitY=0;exitDx=0;exitDy=0;" parent="WIyWlLk6GJQsqaUBKTNV-1" source="JeZtBRn4ZJVJt3xqNd3d-475" target="JeZtBRn4ZJVJt3xqNd3d-393" edge="1">
          <mxGeometry x="0.4074" width="160" relative="1" as="geometry">
            <mxPoint x="380" y="2178" as="sourcePoint" />
            <mxPoint x="750" y="2025" as="targetPoint" />
            <Array as="points">
              <mxPoint x="515" y="2025" />
            </Array>
            <mxPoint as="offset" />
          </mxGeometry>
        </mxCell>
        <mxCell id="JeZtBRn4ZJVJt3xqNd3d-485" value="PlayerAnimation" style="swimlane;fontStyle=1;align=center;verticalAlign=top;childLayout=stackLayout;horizontal=1;startSize=26;horizontalStack=0;resizeParent=1;resizeParentMax=0;resizeLast=0;collapsible=1;marginBottom=0;" parent="WIyWlLk6GJQsqaUBKTNV-1" vertex="1">
          <mxGeometry x="1160" y="644" width="205" height="164" as="geometry" />
        </mxCell>
        <mxCell id="JeZtBRn4ZJVJt3xqNd3d-486" value="" style="line;strokeWidth=1;fillColor=none;align=left;verticalAlign=middle;spacingTop=-1;spacingLeft=3;spacingRight=3;rotatable=0;labelPosition=right;points=[];portConstraint=eastwest;" parent="JeZtBRn4ZJVJt3xqNd3d-485" vertex="1">
          <mxGeometry y="26" width="205" height="8" as="geometry" />
        </mxCell>
        <mxCell id="Zpp8Stq3liSMn8kAWy63-41" value="+ running(Player p): void" style="text;strokeColor=none;fillColor=none;align=left;verticalAlign=top;spacingLeft=4;spacingRight=4;overflow=hidden;rotatable=0;points=[[0,0.5],[1,0.5]];portConstraint=eastwest;" parent="JeZtBRn4ZJVJt3xqNd3d-485" vertex="1">
          <mxGeometry y="34" width="205" height="26" as="geometry" />
        </mxCell>
        <mxCell id="Zpp8Stq3liSMn8kAWy63-42" value="+ jumpingAndFalling(Player p): void" style="text;strokeColor=none;fillColor=none;align=left;verticalAlign=top;spacingLeft=4;spacingRight=4;overflow=hidden;rotatable=0;points=[[0,0.5],[1,0.5]];portConstraint=eastwest;" parent="JeZtBRn4ZJVJt3xqNd3d-485" vertex="1">
          <mxGeometry y="60" width="205" height="26" as="geometry" />
        </mxCell>
        <mxCell id="Zpp8Stq3liSMn8kAWy63-43" value="+ standing(Player p): void" style="text;strokeColor=none;fillColor=none;align=left;verticalAlign=top;spacingLeft=4;spacingRight=4;overflow=hidden;rotatable=0;points=[[0,0.5],[1,0.5]];portConstraint=eastwest;" parent="JeZtBRn4ZJVJt3xqNd3d-485" vertex="1">
          <mxGeometry y="86" width="205" height="26" as="geometry" />
        </mxCell>
        <mxCell id="Zpp8Stq3liSMn8kAWy63-44" value="+ shooting(Player p): void" style="text;strokeColor=none;fillColor=none;align=left;verticalAlign=top;spacingLeft=4;spacingRight=4;overflow=hidden;rotatable=0;points=[[0,0.5],[1,0.5]];portConstraint=eastwest;" parent="JeZtBRn4ZJVJt3xqNd3d-485" vertex="1">
          <mxGeometry y="112" width="205" height="26" as="geometry" />
        </mxCell>
        <mxCell id="Zpp8Stq3liSMn8kAWy63-45" value="+ damageAnimation(Player p): void" style="text;strokeColor=none;fillColor=none;align=left;verticalAlign=top;spacingLeft=4;spacingRight=4;overflow=hidden;rotatable=0;points=[[0,0.5],[1,0.5]];portConstraint=eastwest;" parent="JeZtBRn4ZJVJt3xqNd3d-485" vertex="1">
          <mxGeometry y="138" width="205" height="26" as="geometry" />
        </mxCell>
        <mxCell id="LcbsdcWYRGzOLQetb1zM-0" value="&lt;table border=&quot;1&quot; width=&quot;100%&quot; cellpadding=&quot;4&quot; style=&quot;width: 100% ; height: 100% ; border-collapse: collapse ; font-size: 22px ; background-color: rgb(79 , 138 , 255)&quot;&gt;&lt;tbody&gt;&lt;tr style=&quot;color: rgb(255 , 255 , 255) ; border: 1px solid rgb(152 , 191 , 33)&quot;&gt;&lt;th style=&quot;background-color: rgb(255 , 128 , 0)&quot;&gt;&lt;font style=&quot;font-size: 22px&quot;&gt;BM&lt;/font&gt;&lt;/th&gt;&lt;th&gt;&lt;font style=&quot;font-size: 22px&quot;&gt;ZB&lt;/font&gt;&lt;/th&gt;&lt;th style=&quot;background-color: rgb(255 , 51 , 51)&quot;&gt;&lt;font style=&quot;font-size: 22px&quot;&gt;BD&lt;/font&gt;&lt;/th&gt;&lt;/tr&gt;&lt;/tbody&gt;&lt;/table&gt;" style="text;html=1;fillColor=#f8cecc;overflow=fill;rounded=0;imageAspect=1;align=center;" parent="WIyWlLk6GJQsqaUBKTNV-1" vertex="1">
          <mxGeometry x="675" y="110" width="440" height="54" as="geometry" />
        </mxCell>
        <mxCell id="VrX7brvOpQTtuBTZbgrJ-0" value="&lt;h1&gt;&lt;font style=&quot;font-size: 14px&quot;&gt;A main indítja el az ablakot amiben a játékunk futni fog – MainProcess. Ebben egy állapotgépet használunk fel, ami az állapotok közötti váltásokat valósítja meg. Egy ilyen StateManager típust használ a GameState abstract ősosztály, amiből az egyes állapotokat származtatjuk. Így a program futása és az állapotok kezelése elválik.&lt;/font&gt;&lt;/h1&gt;" style="text;html=1;strokeColor=none;fillColor=none;spacing=5;spacingTop=-20;whiteSpace=wrap;overflow=hidden;rounded=0;" parent="WIyWlLk6GJQsqaUBKTNV-1" vertex="1">
          <mxGeometry x="995" y="1468.5" width="390" height="193" as="geometry" />
        </mxCell>
        <mxCell id="uGVcDti7RYMBFMaiANMX-0" value="GameObjectRenderer" style="swimlane;fontStyle=1;align=center;verticalAlign=top;childLayout=stackLayout;horizontal=1;startSize=26;horizontalStack=0;resizeParent=1;resizeParentMax=0;resizeLast=0;collapsible=1;marginBottom=0;" parent="WIyWlLk6GJQsqaUBKTNV-1" vertex="1">
          <mxGeometry x="467" y="506" width="230" height="138" as="geometry" />
        </mxCell>
        <mxCell id="uGVcDti7RYMBFMaiANMX-2" value="" style="line;strokeWidth=1;fillColor=none;align=left;verticalAlign=middle;spacingTop=-1;spacingLeft=3;spacingRight=3;rotatable=0;labelPosition=right;points=[];portConstraint=eastwest;" parent="uGVcDti7RYMBFMaiANMX-0" vertex="1">
          <mxGeometry y="26" width="230" height="8" as="geometry" />
        </mxCell>
        <mxCell id="uGVcDti7RYMBFMaiANMX-3" value="+ drawPlayer(Player p): void" style="text;strokeColor=none;fillColor=none;align=left;verticalAlign=top;spacingLeft=4;spacingRight=4;overflow=hidden;rotatable=0;points=[[0,0.5],[1,0.5]];portConstraint=eastwest;" parent="uGVcDti7RYMBFMaiANMX-0" vertex="1">
          <mxGeometry y="34" width="230" height="26" as="geometry" />
        </mxCell>
        <mxCell id="Zpp8Stq3liSMn8kAWy63-40" value="+ drawConsumable(Consumable c): void" style="text;strokeColor=none;fillColor=none;align=left;verticalAlign=top;spacingLeft=4;spacingRight=4;overflow=hidden;rotatable=0;points=[[0,0.5],[1,0.5]];portConstraint=eastwest;" parent="uGVcDti7RYMBFMaiANMX-0" vertex="1">
          <mxGeometry y="60" width="230" height="26" as="geometry" />
        </mxCell>
        <mxCell id="Zpp8Stq3liSMn8kAWy63-39" value="+ drawProjectile(Projectile p): void" style="text;strokeColor=none;fillColor=none;align=left;verticalAlign=top;spacingLeft=4;spacingRight=4;overflow=hidden;rotatable=0;points=[[0,0.5],[1,0.5]];portConstraint=eastwest;" parent="uGVcDti7RYMBFMaiANMX-0" vertex="1">
          <mxGeometry y="86" width="230" height="26" as="geometry" />
        </mxCell>
        <mxCell id="_JxZ4ZDpzI68w7kfM63D-4" value="+ drawWeapon(Weapon w): void" style="text;strokeColor=none;fillColor=none;align=left;verticalAlign=top;spacingLeft=4;spacingRight=4;overflow=hidden;rotatable=0;points=[[0,0.5],[1,0.5]];portConstraint=eastwest;" parent="uGVcDti7RYMBFMaiANMX-0" vertex="1">
          <mxGeometry y="112" width="230" height="26" as="geometry" />
        </mxCell>
        <mxCell id="_JxZ4ZDpzI68w7kfM63D-0" value="&lt;p style=&quot;font-size: 16px&quot;&gt;&lt;font style=&quot;font-size: 16px ; line-height: 70%&quot;&gt;A GameObjectRenderer-ben definiáljuk a GameObjectek megjelenítését végző függvényeket, a kirajzolást.&lt;/font&gt;&lt;/p&gt;" style="text;html=1;strokeColor=none;fillColor=none;spacing=5;spacingTop=-20;whiteSpace=wrap;overflow=hidden;rounded=0;fontSize=16;" parent="WIyWlLk6GJQsqaUBKTNV-1" vertex="1">
          <mxGeometry x="470" y="386" width="220" height="90" as="geometry" />
        </mxCell>
        <mxCell id="USXq-WidDV7ixi02RA0d-0" value="&lt;span style=&quot;color: rgb(46 , 47 , 45) ; font-family: &amp;#34;verdana&amp;#34; , &amp;#34;arial&amp;#34; , &amp;#34;helvetica&amp;#34; , sans-serif ; font-size: 11px ; background-color: rgb(255 , 255 , 255)&quot;&gt;A feladatok kellőképpen bonyolultak ahhoz, hogy átgondolt tervezés nélkül tisztességes megoldásuk aligha lehetséges. Az objektum orientált tervezésnél használhatjátok UML szerű jelölésrendszert, de annak az oktatására csak később fog sor kerülni. A tervek kellően részletesek legyenek, &quot;szinte kódot lehessen belőlük generálni&quot;. A cél nem a fölösleges papírgyártás, hanem a megvalósítás részleteinek, problémák, buktatók megfelelő feltárása, megoldása. Ezzel elkerülve az utólagos kényszer megoldásokat (amelyek során a kód és a terv a végére köszönőviszonyba sem lesz ?). Nem kell tehát regényt írni, sokkal fontosabb egy részletes statikus objektum diagram, a legfontosabb objektumok, módszerek egymondatos áttekinthető leírásával. Az objektumok jellegzetes üzenetváltásait bemutató kommunikációs diagram, továbbá ahol szükséges az egyes szálak szerepei, egymás közti kommunikációja szinkronizálásának megoldása.&lt;/span&gt;" style="text;html=1;strokeColor=none;fillColor=none;align=center;verticalAlign=middle;whiteSpace=wrap;rounded=0;" parent="WIyWlLk6GJQsqaUBKTNV-1" vertex="1">
          <mxGeometry x="600" y="190" width="560" height="173" as="geometry" />
        </mxCell>
        <mxCell id="Zpp8Stq3liSMn8kAWy63-5" value="Consumable" style="swimlane;fontStyle=1;align=center;verticalAlign=top;childLayout=stackLayout;horizontal=1;startSize=26;horizontalStack=0;resizeParent=1;resizeParentMax=0;resizeLast=0;collapsible=1;marginBottom=0;" parent="WIyWlLk6GJQsqaUBKTNV-1" vertex="1">
          <mxGeometry x="400" y="829" width="160" height="34" as="geometry" />
        </mxCell>
        <mxCell id="Zpp8Stq3liSMn8kAWy63-7" value="" style="line;strokeWidth=1;fillColor=none;align=left;verticalAlign=middle;spacingTop=-1;spacingLeft=3;spacingRight=3;rotatable=0;labelPosition=right;points=[];portConstraint=eastwest;" parent="Zpp8Stq3liSMn8kAWy63-5" vertex="1">
          <mxGeometry y="26" width="160" height="8" as="geometry" />
        </mxCell>
        <mxCell id="Zpp8Stq3liSMn8kAWy63-8" value="Player" style="swimlane;fontStyle=1;align=center;verticalAlign=top;childLayout=stackLayout;horizontal=1;startSize=26;horizontalStack=0;resizeParent=1;resizeParentMax=0;resizeLast=0;collapsible=1;marginBottom=0;" parent="WIyWlLk6GJQsqaUBKTNV-1" vertex="1">
          <mxGeometry x="590" y="829" width="170" height="34" as="geometry" />
        </mxCell>
        <mxCell id="Zpp8Stq3liSMn8kAWy63-17" value="" style="line;strokeWidth=1;fillColor=none;align=left;verticalAlign=middle;spacingTop=-1;spacingLeft=3;spacingRight=3;rotatable=0;labelPosition=right;points=[];portConstraint=eastwest;" parent="Zpp8Stq3liSMn8kAWy63-8" vertex="1">
          <mxGeometry y="26" width="170" height="8" as="geometry" />
        </mxCell>
        <mxCell id="Zpp8Stq3liSMn8kAWy63-18" value="Weapon" style="swimlane;fontStyle=1;align=center;verticalAlign=top;childLayout=stackLayout;horizontal=1;startSize=26;horizontalStack=0;resizeParent=1;resizeParentMax=0;resizeLast=0;collapsible=1;marginBottom=0;" parent="WIyWlLk6GJQsqaUBKTNV-1" vertex="1">
          <mxGeometry x="620" y="746" width="170" height="34" as="geometry" />
        </mxCell>
        <mxCell id="Zpp8Stq3liSMn8kAWy63-24" value="" style="line;strokeWidth=1;fillColor=none;align=left;verticalAlign=middle;spacingTop=-1;spacingLeft=3;spacingRight=3;rotatable=0;labelPosition=right;points=[];portConstraint=eastwest;" parent="Zpp8Stq3liSMn8kAWy63-18" vertex="1">
          <mxGeometry y="26" width="170" height="8" as="geometry" />
        </mxCell>
        <mxCell id="Zpp8Stq3liSMn8kAWy63-25" value="Projectile" style="swimlane;fontStyle=1;align=center;verticalAlign=top;childLayout=stackLayout;horizontal=1;startSize=26;horizontalStack=0;resizeParent=1;resizeParentMax=0;resizeLast=0;collapsible=1;marginBottom=0;" parent="WIyWlLk6GJQsqaUBKTNV-1" vertex="1">
          <mxGeometry x="310.5" y="746" width="190" height="34" as="geometry" />
        </mxCell>
        <mxCell id="Zpp8Stq3liSMn8kAWy63-28" value="" style="line;strokeWidth=1;fillColor=none;align=left;verticalAlign=middle;spacingTop=-1;spacingLeft=3;spacingRight=3;rotatable=0;labelPosition=right;points=[];portConstraint=eastwest;" parent="Zpp8Stq3liSMn8kAWy63-25" vertex="1">
          <mxGeometry y="26" width="190" height="8" as="geometry" />
        </mxCell>
        <mxCell id="Zpp8Stq3liSMn8kAWy63-48" value="Server" style="swimlane;fontStyle=0;childLayout=stackLayout;horizontal=1;startSize=26;fillColor=none;horizontalStack=0;resizeParent=1;resizeParentMax=0;resizeLast=0;collapsible=1;marginBottom=0;" parent="WIyWlLk6GJQsqaUBKTNV-1" vertex="1">
          <mxGeometry x="160" y="2884" width="239" height="208" as="geometry" />
        </mxCell>
        <mxCell id="Zpp8Stq3liSMn8kAWy63-49" value="+ port: int" style="text;strokeColor=none;fillColor=none;align=left;verticalAlign=top;spacingLeft=4;spacingRight=4;overflow=hidden;rotatable=0;points=[[0,0.5],[1,0.5]];portConstraint=eastwest;" parent="Zpp8Stq3liSMn8kAWy63-48" vertex="1">
          <mxGeometry y="26" width="239" height="26" as="geometry" />
        </mxCell>
        <mxCell id="Zpp8Stq3liSMn8kAWy63-50" value="+ useNames: Set&lt;String&gt;" style="text;strokeColor=none;fillColor=none;align=left;verticalAlign=top;spacingLeft=4;spacingRight=4;overflow=hidden;rotatable=0;points=[[0,0.5],[1,0.5]];portConstraint=eastwest;" parent="Zpp8Stq3liSMn8kAWy63-48" vertex="1">
          <mxGeometry y="52" width="239" height="26" as="geometry" />
        </mxCell>
        <mxCell id="Zpp8Stq3liSMn8kAWy63-51" value="+ userThreads: &lt;Set&gt;UserThreads" style="text;strokeColor=none;fillColor=none;align=left;verticalAlign=top;spacingLeft=4;spacingRight=4;overflow=hidden;rotatable=0;points=[[0,0.5],[1,0.5]];portConstraint=eastwest;" parent="Zpp8Stq3liSMn8kAWy63-48" vertex="1">
          <mxGeometry y="78" width="239" height="26" as="geometry" />
        </mxCell>
        <mxCell id="Zpp8Stq3liSMn8kAWy63-52" value="+ Server(int): void" style="text;strokeColor=none;fillColor=none;align=left;verticalAlign=top;spacingLeft=4;spacingRight=4;overflow=hidden;rotatable=0;points=[[0,0.5],[1,0.5]];portConstraint=eastwest;" parent="Zpp8Stq3liSMn8kAWy63-48" vertex="1">
          <mxGeometry y="104" width="239" height="26" as="geometry" />
        </mxCell>
        <mxCell id="Zpp8Stq3liSMn8kAWy63-53" value="+ execute(): void" style="text;strokeColor=none;fillColor=none;align=left;verticalAlign=top;spacingLeft=4;spacingRight=4;overflow=hidden;rotatable=0;points=[[0,0.5],[1,0.5]];portConstraint=eastwest;" parent="Zpp8Stq3liSMn8kAWy63-48" vertex="1">
          <mxGeometry y="130" width="239" height="26" as="geometry" />
        </mxCell>
        <mxCell id="Zpp8Stq3liSMn8kAWy63-54" value="+ broadcast(String, UserThread): void" style="text;strokeColor=none;fillColor=none;align=left;verticalAlign=top;spacingLeft=4;spacingRight=4;overflow=hidden;rotatable=0;points=[[0,0.5],[1,0.5]];portConstraint=eastwest;" parent="Zpp8Stq3liSMn8kAWy63-48" vertex="1">
          <mxGeometry y="156" width="239" height="26" as="geometry" />
        </mxCell>
        <mxCell id="Zpp8Stq3liSMn8kAWy63-55" value="+ removeUser(String, UserThread): void" style="text;strokeColor=none;fillColor=none;align=left;verticalAlign=top;spacingLeft=4;spacingRight=4;overflow=hidden;rotatable=0;points=[[0,0.5],[1,0.5]];portConstraint=eastwest;" parent="Zpp8Stq3liSMn8kAWy63-48" vertex="1">
          <mxGeometry y="182" width="239" height="26" as="geometry" />
        </mxCell>
        <mxCell id="Zpp8Stq3liSMn8kAWy63-56" value="UserThread" style="swimlane;fontStyle=0;childLayout=stackLayout;horizontal=1;startSize=26;fillColor=none;horizontalStack=0;resizeParent=1;resizeParentMax=0;resizeLast=0;collapsible=1;marginBottom=0;" parent="WIyWlLk6GJQsqaUBKTNV-1" vertex="1">
          <mxGeometry x="500.5" y="2884" width="197" height="208" as="geometry" />
        </mxCell>
        <mxCell id="Zpp8Stq3liSMn8kAWy63-57" value="+ socket: Socket" style="text;strokeColor=none;fillColor=none;align=left;verticalAlign=top;spacingLeft=4;spacingRight=4;overflow=hidden;rotatable=0;points=[[0,0.5],[1,0.5]];portConstraint=eastwest;" parent="Zpp8Stq3liSMn8kAWy63-56" vertex="1">
          <mxGeometry y="26" width="197" height="26" as="geometry" />
        </mxCell>
        <mxCell id="Zpp8Stq3liSMn8kAWy63-58" value="+ server: Server" style="text;strokeColor=none;fillColor=none;align=left;verticalAlign=top;spacingLeft=4;spacingRight=4;overflow=hidden;rotatable=0;points=[[0,0.5],[1,0.5]];portConstraint=eastwest;" parent="Zpp8Stq3liSMn8kAWy63-56" vertex="1">
          <mxGeometry y="52" width="197" height="26" as="geometry" />
        </mxCell>
        <mxCell id="Zpp8Stq3liSMn8kAWy63-59" value="+ writer: PrintWriter" style="text;strokeColor=none;fillColor=none;align=left;verticalAlign=top;spacingLeft=4;spacingRight=4;overflow=hidden;rotatable=0;points=[[0,0.5],[1,0.5]];portConstraint=eastwest;" parent="Zpp8Stq3liSMn8kAWy63-56" vertex="1">
          <mxGeometry y="78" width="197" height="26" as="geometry" />
        </mxCell>
        <mxCell id="Zpp8Stq3liSMn8kAWy63-60" value="+ UserThread: void" style="text;strokeColor=none;fillColor=none;align=left;verticalAlign=top;spacingLeft=4;spacingRight=4;overflow=hidden;rotatable=0;points=[[0,0.5],[1,0.5]];portConstraint=eastwest;" parent="Zpp8Stq3liSMn8kAWy63-56" vertex="1">
          <mxGeometry y="104" width="197" height="26" as="geometry" />
        </mxCell>
        <mxCell id="Zpp8Stq3liSMn8kAWy63-61" value="+ run(): void" style="text;strokeColor=none;fillColor=none;align=left;verticalAlign=top;spacingLeft=4;spacingRight=4;overflow=hidden;rotatable=0;points=[[0,0.5],[1,0.5]];portConstraint=eastwest;" parent="Zpp8Stq3liSMn8kAWy63-56" vertex="1">
          <mxGeometry y="130" width="197" height="26" as="geometry" />
        </mxCell>
        <mxCell id="Zpp8Stq3liSMn8kAWy63-62" value="+ printUsers(): void" style="text;strokeColor=none;fillColor=none;align=left;verticalAlign=top;spacingLeft=4;spacingRight=4;overflow=hidden;rotatable=0;points=[[0,0.5],[1,0.5]];portConstraint=eastwest;" parent="Zpp8Stq3liSMn8kAWy63-56" vertex="1">
          <mxGeometry y="156" width="197" height="26" as="geometry" />
        </mxCell>
        <mxCell id="Zpp8Stq3liSMn8kAWy63-63" value="+ sendMessage(String): void" style="text;strokeColor=none;fillColor=none;align=left;verticalAlign=top;spacingLeft=4;spacingRight=4;overflow=hidden;rotatable=0;points=[[0,0.5],[1,0.5]];portConstraint=eastwest;" parent="Zpp8Stq3liSMn8kAWy63-56" vertex="1">
          <mxGeometry y="182" width="197" height="26" as="geometry" />
        </mxCell>
        <mxCell id="Zpp8Stq3liSMn8kAWy63-64" value="«interface»&lt;br&gt;&lt;b&gt;Thread&lt;/b&gt;" style="html=1;" parent="WIyWlLk6GJQsqaUBKTNV-1" vertex="1">
          <mxGeometry x="544" y="2762" width="110" height="50" as="geometry" />
        </mxCell>
        <mxCell id="Zpp8Stq3liSMn8kAWy63-65" value="Extends" style="endArrow=block;endSize=16;endFill=0;html=1;entryX=0.5;entryY=1;entryDx=0;entryDy=0;exitX=0.5;exitY=0;exitDx=0;exitDy=0;" parent="WIyWlLk6GJQsqaUBKTNV-1" source="Zpp8Stq3liSMn8kAWy63-56" target="Zpp8Stq3liSMn8kAWy63-64" edge="1">
          <mxGeometry width="160" relative="1" as="geometry">
            <mxPoint x="503" y="2966" as="sourcePoint" />
            <mxPoint x="663" y="2966" as="targetPoint" />
          </mxGeometry>
        </mxCell>
        <mxCell id="Zpp8Stq3liSMn8kAWy63-66" value="" style="endArrow=diamondThin;endFill=1;endSize=24;html=1;entryX=0;entryY=0.5;entryDx=0;entryDy=0;exitX=1;exitY=0.5;exitDx=0;exitDy=0;startArrow=classic;startFill=1;" parent="WIyWlLk6GJQsqaUBKTNV-1" source="Zpp8Stq3liSMn8kAWy63-52" target="Zpp8Stq3liSMn8kAWy63-60" edge="1">
          <mxGeometry width="160" relative="1" as="geometry">
            <mxPoint x="503" y="2966" as="sourcePoint" />
            <mxPoint x="663" y="2966" as="targetPoint" />
          </mxGeometry>
        </mxCell>
        <mxCell id="Zpp8Stq3liSMn8kAWy63-67" value="Client" style="swimlane;fontStyle=0;childLayout=stackLayout;horizontal=1;startSize=26;fillColor=none;horizontalStack=0;resizeParent=1;resizeParentMax=0;resizeLast=0;collapsible=1;marginBottom=0;" parent="WIyWlLk6GJQsqaUBKTNV-1" vertex="1">
          <mxGeometry x="790" y="2865" width="140" height="128" as="geometry">
            <mxRectangle x="346" y="726" width="57" height="26" as="alternateBounds" />
          </mxGeometry>
        </mxCell>
        <mxCell id="Zpp8Stq3liSMn8kAWy63-68" value="+ port: int" style="text;strokeColor=none;fillColor=none;align=left;verticalAlign=top;spacingLeft=4;spacingRight=4;overflow=hidden;rotatable=0;points=[[0,0.5],[1,0.5]];portConstraint=eastwest;" parent="Zpp8Stq3liSMn8kAWy63-67" vertex="1">
          <mxGeometry y="26" width="140" height="26" as="geometry" />
        </mxCell>
        <mxCell id="Zpp8Stq3liSMn8kAWy63-69" value="+ userName: String" style="text;strokeColor=none;fillColor=none;align=left;verticalAlign=top;spacingLeft=4;spacingRight=4;overflow=hidden;rotatable=0;points=[[0,0.5],[1,0.5]];portConstraint=eastwest;" parent="Zpp8Stq3liSMn8kAWy63-67" vertex="1">
          <mxGeometry y="52" width="140" height="26" as="geometry" />
        </mxCell>
        <mxCell id="Zpp8Stq3liSMn8kAWy63-70" value="+ Client(String, int): void" style="text;strokeColor=none;fillColor=none;align=left;verticalAlign=top;spacingLeft=4;spacingRight=4;overflow=hidden;rotatable=0;points=[[0,0.5],[1,0.5]];portConstraint=eastwest;" parent="Zpp8Stq3liSMn8kAWy63-67" vertex="1">
          <mxGeometry y="78" width="140" height="25" as="geometry" />
        </mxCell>
        <mxCell id="Zpp8Stq3liSMn8kAWy63-71" value="+ execute(): void" style="text;strokeColor=none;fillColor=none;align=left;verticalAlign=top;spacingLeft=4;spacingRight=4;overflow=hidden;rotatable=0;points=[[0,0.5],[1,0.5]];portConstraint=eastwest;" parent="Zpp8Stq3liSMn8kAWy63-67" vertex="1">
          <mxGeometry y="103" width="140" height="25" as="geometry" />
        </mxCell>
        <mxCell id="Zpp8Stq3liSMn8kAWy63-72" value="ReadThread" style="swimlane;fontStyle=0;childLayout=stackLayout;horizontal=1;startSize=26;fillColor=none;horizontalStack=0;resizeParent=1;resizeParentMax=0;resizeLast=0;collapsible=1;marginBottom=0;" parent="WIyWlLk6GJQsqaUBKTNV-1" vertex="1">
          <mxGeometry x="1067" y="2865" width="197" height="156" as="geometry" />
        </mxCell>
        <mxCell id="Zpp8Stq3liSMn8kAWy63-73" value="+ reader: BufferedReader" style="text;strokeColor=none;fillColor=none;align=left;verticalAlign=top;spacingLeft=4;spacingRight=4;overflow=hidden;rotatable=0;points=[[0,0.5],[1,0.5]];portConstraint=eastwest;" parent="Zpp8Stq3liSMn8kAWy63-72" vertex="1">
          <mxGeometry y="26" width="197" height="26" as="geometry" />
        </mxCell>
        <mxCell id="Zpp8Stq3liSMn8kAWy63-74" value="+ socket: Socket" style="text;strokeColor=none;fillColor=none;align=left;verticalAlign=top;spacingLeft=4;spacingRight=4;overflow=hidden;rotatable=0;points=[[0,0.5],[1,0.5]];portConstraint=eastwest;" parent="Zpp8Stq3liSMn8kAWy63-72" vertex="1">
          <mxGeometry y="52" width="197" height="26" as="geometry" />
        </mxCell>
        <mxCell id="Zpp8Stq3liSMn8kAWy63-75" value="+ client: Client" style="text;strokeColor=none;fillColor=none;align=left;verticalAlign=top;spacingLeft=4;spacingRight=4;overflow=hidden;rotatable=0;points=[[0,0.5],[1,0.5]];portConstraint=eastwest;" parent="Zpp8Stq3liSMn8kAWy63-72" vertex="1">
          <mxGeometry y="78" width="197" height="26" as="geometry" />
        </mxCell>
        <mxCell id="Zpp8Stq3liSMn8kAWy63-76" value="+ ReadThread: void" style="text;strokeColor=none;fillColor=none;align=left;verticalAlign=top;spacingLeft=4;spacingRight=4;overflow=hidden;rotatable=0;points=[[0,0.5],[1,0.5]];portConstraint=eastwest;" parent="Zpp8Stq3liSMn8kAWy63-72" vertex="1">
          <mxGeometry y="104" width="197" height="26" as="geometry" />
        </mxCell>
        <mxCell id="Zpp8Stq3liSMn8kAWy63-77" value="+ run(): void" style="text;strokeColor=none;fillColor=none;align=left;verticalAlign=top;spacingLeft=4;spacingRight=4;overflow=hidden;rotatable=0;points=[[0,0.5],[1,0.5]];portConstraint=eastwest;" parent="Zpp8Stq3liSMn8kAWy63-72" vertex="1">
          <mxGeometry y="130" width="197" height="26" as="geometry" />
        </mxCell>
        <mxCell id="Zpp8Stq3liSMn8kAWy63-78" value="«interface»&lt;br&gt;&lt;b&gt;Thread&lt;/b&gt;" style="html=1;" parent="WIyWlLk6GJQsqaUBKTNV-1" vertex="1">
          <mxGeometry x="1110.5" y="2743" width="110" height="50" as="geometry" />
        </mxCell>
        <mxCell id="Zpp8Stq3liSMn8kAWy63-79" value="Extends" style="endArrow=block;endSize=16;endFill=0;html=1;entryX=0.5;entryY=1;entryDx=0;entryDy=0;exitX=0.5;exitY=0;exitDx=0;exitDy=0;" parent="WIyWlLk6GJQsqaUBKTNV-1" source="Zpp8Stq3liSMn8kAWy63-72" target="Zpp8Stq3liSMn8kAWy63-78" edge="1">
          <mxGeometry width="160" relative="1" as="geometry">
            <mxPoint x="1069.5" y="2947" as="sourcePoint" />
            <mxPoint x="1229.5" y="2947" as="targetPoint" />
          </mxGeometry>
        </mxCell>
        <mxCell id="Zpp8Stq3liSMn8kAWy63-80" value="WriteThread" style="swimlane;fontStyle=0;childLayout=stackLayout;horizontal=1;startSize=26;fillColor=none;horizontalStack=0;resizeParent=1;resizeParentMax=0;resizeLast=0;collapsible=1;marginBottom=0;" parent="WIyWlLk6GJQsqaUBKTNV-1" vertex="1">
          <mxGeometry x="1067" y="3169" width="197" height="156" as="geometry" />
        </mxCell>
        <mxCell id="Zpp8Stq3liSMn8kAWy63-81" value="+ writer: PrintWriter" style="text;strokeColor=none;fillColor=none;align=left;verticalAlign=top;spacingLeft=4;spacingRight=4;overflow=hidden;rotatable=0;points=[[0,0.5],[1,0.5]];portConstraint=eastwest;" parent="Zpp8Stq3liSMn8kAWy63-80" vertex="1">
          <mxGeometry y="26" width="197" height="26" as="geometry" />
        </mxCell>
        <mxCell id="Zpp8Stq3liSMn8kAWy63-82" value="+ socket: Socket" style="text;strokeColor=none;fillColor=none;align=left;verticalAlign=top;spacingLeft=4;spacingRight=4;overflow=hidden;rotatable=0;points=[[0,0.5],[1,0.5]];portConstraint=eastwest;" parent="Zpp8Stq3liSMn8kAWy63-80" vertex="1">
          <mxGeometry y="52" width="197" height="26" as="geometry" />
        </mxCell>
        <mxCell id="Zpp8Stq3liSMn8kAWy63-83" value="+ client: Client" style="text;strokeColor=none;fillColor=none;align=left;verticalAlign=top;spacingLeft=4;spacingRight=4;overflow=hidden;rotatable=0;points=[[0,0.5],[1,0.5]];portConstraint=eastwest;" parent="Zpp8Stq3liSMn8kAWy63-80" vertex="1">
          <mxGeometry y="78" width="197" height="26" as="geometry" />
        </mxCell>
        <mxCell id="Zpp8Stq3liSMn8kAWy63-84" value="+ WriteThread: void" style="text;strokeColor=none;fillColor=none;align=left;verticalAlign=top;spacingLeft=4;spacingRight=4;overflow=hidden;rotatable=0;points=[[0,0.5],[1,0.5]];portConstraint=eastwest;" parent="Zpp8Stq3liSMn8kAWy63-80" vertex="1">
          <mxGeometry y="104" width="197" height="26" as="geometry" />
        </mxCell>
        <mxCell id="Zpp8Stq3liSMn8kAWy63-85" value="+ run(): void" style="text;strokeColor=none;fillColor=none;align=left;verticalAlign=top;spacingLeft=4;spacingRight=4;overflow=hidden;rotatable=0;points=[[0,0.5],[1,0.5]];portConstraint=eastwest;" parent="Zpp8Stq3liSMn8kAWy63-80" vertex="1">
          <mxGeometry y="130" width="197" height="26" as="geometry" />
        </mxCell>
        <mxCell id="Zpp8Stq3liSMn8kAWy63-86" value="«interface»&lt;br&gt;&lt;b&gt;Thread&lt;/b&gt;" style="html=1;" parent="WIyWlLk6GJQsqaUBKTNV-1" vertex="1">
          <mxGeometry x="1110.5" y="3047" width="110" height="50" as="geometry" />
        </mxCell>
        <mxCell id="Zpp8Stq3liSMn8kAWy63-87" value="Extends" style="endArrow=block;endSize=16;endFill=0;html=1;entryX=0.5;entryY=1;entryDx=0;entryDy=0;exitX=0.5;exitY=0;exitDx=0;exitDy=0;" parent="WIyWlLk6GJQsqaUBKTNV-1" source="Zpp8Stq3liSMn8kAWy63-80" target="Zpp8Stq3liSMn8kAWy63-86" edge="1">
          <mxGeometry width="160" relative="1" as="geometry">
            <mxPoint x="1069.5" y="3251" as="sourcePoint" />
            <mxPoint x="1229.5" y="3251" as="targetPoint" />
          </mxGeometry>
        </mxCell>
        <mxCell id="Zpp8Stq3liSMn8kAWy63-88" value="" style="endArrow=diamondThin;endFill=1;endSize=24;html=1;exitX=1;exitY=0.5;exitDx=0;exitDy=0;startArrow=classic;startFill=1;" parent="WIyWlLk6GJQsqaUBKTNV-1" source="Zpp8Stq3liSMn8kAWy63-69" edge="1">
          <mxGeometry width="160" relative="1" as="geometry">
            <mxPoint x="972" y="3082" as="sourcePoint" />
            <mxPoint x="1066" y="2960" as="targetPoint" />
            <Array as="points">
              <mxPoint x="1020" y="2930" />
              <mxPoint x="1020" y="2960" />
            </Array>
          </mxGeometry>
        </mxCell>
        <mxCell id="Zpp8Stq3liSMn8kAWy63-89" value="" style="endArrow=diamondThin;endFill=1;endSize=24;html=1;entryX=0;entryY=0.5;entryDx=0;entryDy=0;exitX=1;exitY=0.5;exitDx=0;exitDy=0;startArrow=classic;startFill=1;" parent="WIyWlLk6GJQsqaUBKTNV-1" source="Zpp8Stq3liSMn8kAWy63-69" target="Zpp8Stq3liSMn8kAWy63-83" edge="1">
          <mxGeometry width="160" relative="1" as="geometry">
            <mxPoint x="972" y="3082" as="sourcePoint" />
            <mxPoint x="1132" y="3082" as="targetPoint" />
            <Array as="points">
              <mxPoint x="985" y="2930" />
              <mxPoint x="985" y="3076" />
              <mxPoint x="985" y="3260" />
            </Array>
          </mxGeometry>
        </mxCell>
        <mxCell id="Zpp8Stq3liSMn8kAWy63-90" value="&lt;b&gt;&lt;font style=&quot;font-size: 17px&quot;&gt;SERVER classes&lt;/font&gt;&lt;/b&gt;" style="text;html=1;strokeColor=none;fillColor=none;align=center;verticalAlign=middle;whiteSpace=wrap;rounded=0;" parent="WIyWlLk6GJQsqaUBKTNV-1" vertex="1">
          <mxGeometry x="340" y="2742" width="190" height="20" as="geometry" />
        </mxCell>
        <mxCell id="Zpp8Stq3liSMn8kAWy63-91" value="CLIENT classes" style="text;align=center;fontStyle=1;verticalAlign=middle;spacingLeft=3;spacingRight=3;strokeColor=none;rotatable=0;points=[[0,0.5],[1,0.5]];portConstraint=eastwest;fontSize=17;" parent="WIyWlLk6GJQsqaUBKTNV-1" vertex="1">
          <mxGeometry x="930" y="2740" width="110" height="26" as="geometry" />
        </mxCell>
        <mxCell id="Zpp8Stq3liSMn8kAWy63-96" value="" style="endArrow=diamondThin;endFill=1;endSize=24;html=1;fontSize=17;entryX=1;entryY=0.5;entryDx=0;entryDy=0;exitX=0;exitY=0.5;exitDx=0;exitDy=0;startArrow=classic;startFill=1;" parent="WIyWlLk6GJQsqaUBKTNV-1" source="JeZtBRn4ZJVJt3xqNd3d-381" target="JeZtBRn4ZJVJt3xqNd3d-389" edge="1">
          <mxGeometry width="160" relative="1" as="geometry">
            <mxPoint x="1020" y="1958.58" as="sourcePoint" />
            <mxPoint x="1180" y="1958.58" as="targetPoint" />
            <Array as="points">
              <mxPoint x="1140" y="1814" />
              <mxPoint x="1140" y="1939" />
            </Array>
          </mxGeometry>
        </mxCell>
        <mxCell id="Zpp8Stq3liSMn8kAWy63-97" value="" style="endArrow=diamondThin;endFill=1;endSize=24;html=1;fontSize=17;entryX=1;entryY=0.5;entryDx=0;entryDy=0;startArrow=classic;startFill=1;" parent="WIyWlLk6GJQsqaUBKTNV-1" edge="1">
          <mxGeometry width="160" relative="1" as="geometry">
            <mxPoint x="1220" y="1780" as="sourcePoint" />
            <mxPoint x="990" y="1695" as="targetPoint" />
            <Array as="points">
              <mxPoint x="1130" y="1780" />
              <mxPoint x="1130" y="1695" />
            </Array>
          </mxGeometry>
        </mxCell>
        <mxCell id="Zpp8Stq3liSMn8kAWy63-98" value="" style="endArrow=diamondThin;endFill=1;endSize=24;html=1;fontSize=17;entryX=1;entryY=0.5;entryDx=0;entryDy=0;startArrow=classic;startFill=1;exitX=0;exitY=0.5;exitDx=0;exitDy=0;" parent="WIyWlLk6GJQsqaUBKTNV-1" source="JeZtBRn4ZJVJt3xqNd3d-371" target="JeZtBRn4ZJVJt3xqNd3d-367" edge="1">
          <mxGeometry width="160" relative="1" as="geometry">
            <mxPoint x="790" y="1696" as="sourcePoint" />
            <mxPoint x="650" y="1770" as="targetPoint" />
            <Array as="points">
              <mxPoint x="740" y="1696" />
            </Array>
          </mxGeometry>
        </mxCell>
        <mxCell id="bt4467m30lYe5uGe1qDl-0" value="" style="endArrow=diamondThin;endFill=1;endSize=24;html=1;fontSize=17;entryX=0.75;entryY=1;entryDx=0;entryDy=0;exitX=0.5;exitY=0;exitDx=0;exitDy=0;startArrow=classic;startFill=1;" parent="WIyWlLk6GJQsqaUBKTNV-1" source="JeZtBRn4ZJVJt3xqNd3d-333" target="JeZtBRn4ZJVJt3xqNd3d-475" edge="1">
          <mxGeometry width="160" relative="1" as="geometry">
            <mxPoint x="590" y="2240" as="sourcePoint" />
            <mxPoint x="370" y="2365" as="targetPoint" />
            <Array as="points">
              <mxPoint x="510" y="2380" />
              <mxPoint x="568" y="2380" />
            </Array>
          </mxGeometry>
        </mxCell>
        <mxCell id="bt4467m30lYe5uGe1qDl-2" value="" style="endArrow=diamondThin;endFill=1;endSize=24;html=1;fontSize=17;entryX=0.75;entryY=1;entryDx=0;entryDy=0;exitX=0.5;exitY=0;exitDx=0;exitDy=0;startArrow=classic;startFill=1;" parent="WIyWlLk6GJQsqaUBKTNV-1" source="JeZtBRn4ZJVJt3xqNd3d-345" edge="1">
          <mxGeometry width="160" relative="1" as="geometry">
            <mxPoint x="400" y="2420" as="sourcePoint" />
            <mxPoint x="457.5" y="2318" as="targetPoint" />
            <Array as="points">
              <mxPoint x="260" y="2380" />
              <mxPoint x="458" y="2380" />
            </Array>
          </mxGeometry>
        </mxCell>
        <mxCell id="bt4467m30lYe5uGe1qDl-3" value="" style="endArrow=diamondThin;endFill=1;endSize=24;html=1;fontSize=17;startArrow=classic;startFill=1;exitX=1.002;exitY=0.168;exitDx=0;exitDy=0;exitPerimeter=0;" parent="WIyWlLk6GJQsqaUBKTNV-1" source="JeZtBRn4ZJVJt3xqNd3d-323" edge="1">
          <mxGeometry width="160" relative="1" as="geometry">
            <mxPoint x="340" y="2245" as="sourcePoint" />
            <mxPoint x="410" y="2245" as="targetPoint" />
            <Array as="points" />
          </mxGeometry>
        </mxCell>
        <mxCell id="bt4467m30lYe5uGe1qDl-4" value="" style="endArrow=diamondThin;endFill=1;endSize=24;html=1;fontSize=17;startArrow=classic;startFill=1;exitX=0.5;exitY=1;exitDx=0;exitDy=0;entryX=0.5;entryY=0;entryDx=0;entryDy=0;" parent="WIyWlLk6GJQsqaUBKTNV-1" source="JeZtBRn4ZJVJt3xqNd3d-327" target="JeZtBRn4ZJVJt3xqNd3d-323" edge="1">
          <mxGeometry width="160" relative="1" as="geometry">
            <mxPoint x="330.3199999999997" y="2254.4480000000003" as="sourcePoint" />
            <mxPoint x="420" y="2255" as="targetPoint" />
            <Array as="points" />
          </mxGeometry>
        </mxCell>
        <mxCell id="bt4467m30lYe5uGe1qDl-7" value="" style="endArrow=diamondThin;endFill=1;endSize=24;html=1;fontSize=17;entryX=0.5;entryY=1;entryDx=0;entryDy=0;startArrow=classic;startFill=1;exitX=0.5;exitY=0;exitDx=0;exitDy=0;" parent="WIyWlLk6GJQsqaUBKTNV-1" source="JeZtBRn4ZJVJt3xqNd3d-291" target="JeZtBRn4ZJVJt3xqNd3d-300" edge="1">
          <mxGeometry width="160" relative="1" as="geometry">
            <mxPoint x="1470" y="1190" as="sourcePoint" />
            <mxPoint x="1370" y="1190" as="targetPoint" />
            <Array as="points" />
          </mxGeometry>
        </mxCell>
        <mxCell id="bt4467m30lYe5uGe1qDl-8" value="" style="endArrow=diamondThin;endFill=1;endSize=24;html=1;fontSize=17;startArrow=classic;startFill=1;exitX=0.5;exitY=0;exitDx=0;exitDy=0;" parent="WIyWlLk6GJQsqaUBKTNV-1" source="JeZtBRn4ZJVJt3xqNd3d-300" edge="1">
          <mxGeometry width="160" relative="1" as="geometry">
            <mxPoint x="1200" y="900" as="sourcePoint" />
            <mxPoint x="1268" y="807" as="targetPoint" />
            <Array as="points" />
          </mxGeometry>
        </mxCell>
        <mxCell id="bt4467m30lYe5uGe1qDl-9" value="" style="endArrow=diamondThin;endFill=1;endSize=24;html=1;fontSize=17;startArrow=classic;startFill=1;exitX=0.5;exitY=0;exitDx=0;exitDy=0;entryX=0.92;entryY=1.011;entryDx=0;entryDy=0;entryPerimeter=0;" parent="WIyWlLk6GJQsqaUBKTNV-1" source="Zpp8Stq3liSMn8kAWy63-18" target="_JxZ4ZDpzI68w7kfM63D-4" edge="1">
          <mxGeometry width="160" relative="1" as="geometry">
            <mxPoint x="659.4300000000001" y="734" as="sourcePoint" />
            <mxPoint x="676" y="643" as="targetPoint" />
            <Array as="points">
              <mxPoint x="705" y="690" />
              <mxPoint x="679" y="690" />
            </Array>
          </mxGeometry>
        </mxCell>
        <mxCell id="bt4467m30lYe5uGe1qDl-10" value="" style="endArrow=diamondThin;endFill=1;endSize=24;html=1;fontSize=17;entryX=0.849;entryY=0.967;entryDx=0;entryDy=0;startArrow=classic;startFill=1;exitX=0.5;exitY=0;exitDx=0;exitDy=0;entryPerimeter=0;" parent="WIyWlLk6GJQsqaUBKTNV-1" source="Zpp8Stq3liSMn8kAWy63-8" edge="1">
          <mxGeometry width="160" relative="1" as="geometry">
            <mxPoint x="625.5" y="746.86" as="sourcePoint" />
            <mxPoint x="599.73" y="644.0020000000001" as="targetPoint" />
            <Array as="points">
              <mxPoint x="675" y="800" />
              <mxPoint x="600" y="800" />
              <mxPoint x="599.5" y="690.86" />
            </Array>
          </mxGeometry>
        </mxCell>
        <mxCell id="bt4467m30lYe5uGe1qDl-11" value="" style="endArrow=diamondThin;endFill=1;endSize=24;html=1;fontSize=17;entryX=0.849;entryY=0.967;entryDx=0;entryDy=0;startArrow=classic;startFill=1;exitX=0.5;exitY=0;exitDx=0;exitDy=0;entryPerimeter=0;" parent="WIyWlLk6GJQsqaUBKTNV-1" source="Zpp8Stq3liSMn8kAWy63-5" edge="1">
          <mxGeometry width="160" relative="1" as="geometry">
            <mxPoint x="638.25" y="828" as="sourcePoint" />
            <mxPoint x="559.98" y="644.002" as="targetPoint" />
            <Array as="points">
              <mxPoint x="480" y="800" />
              <mxPoint x="560.25" y="800" />
              <mxPoint x="559.75" y="690.86" />
            </Array>
          </mxGeometry>
        </mxCell>
        <mxCell id="bt4467m30lYe5uGe1qDl-12" value="" style="endArrow=diamondThin;endFill=1;endSize=24;html=1;fontSize=17;entryX=0.098;entryY=1.011;entryDx=0;entryDy=0;startArrow=classic;startFill=1;exitX=0.5;exitY=0;exitDx=0;exitDy=0;entryPerimeter=0;" parent="WIyWlLk6GJQsqaUBKTNV-1" source="Zpp8Stq3liSMn8kAWy63-25" target="_JxZ4ZDpzI68w7kfM63D-4" edge="1">
          <mxGeometry width="160" relative="1" as="geometry">
            <mxPoint x="506" y="746.86" as="sourcePoint" />
            <mxPoint x="480.23" y="644.0020000000001" as="targetPoint" />
            <Array as="points">
              <mxPoint x="407" y="691" />
              <mxPoint x="490" y="691" />
            </Array>
          </mxGeometry>
        </mxCell>
        <mxCell id="bt4467m30lYe5uGe1qDl-13" value="" style="endArrow=diamondThin;endFill=1;endSize=24;html=1;fontSize=17;entryX=0;entryY=0;entryDx=0;entryDy=0;startArrow=classic;startFill=1;" parent="WIyWlLk6GJQsqaUBKTNV-1" target="JeZtBRn4ZJVJt3xqNd3d-291" edge="1">
          <mxGeometry width="160" relative="1" as="geometry">
            <mxPoint x="1033" y="1242" as="sourcePoint" />
            <mxPoint x="1277.5" y="1178" as="targetPoint" />
            <Array as="points" />
          </mxGeometry>
        </mxCell>
      </root>
    </mxGraphModel>
  </diagram>
</mxfile>
